<svg id="Layer_1" data-name="Layer 1" xmlns="http://www.w3.org/2000/svg" xmlns:xlink="http://www.w3.org/1999/xlink" viewBox="0 0 568.19 262.75"><defs><style>.cls-1,.cls-10,.cls-11,.cls-14,.cls-15,.cls-17,.cls-18,.cls-19,.cls-2,.cls-20,.cls-21,.cls-22,.cls-28,.cls-29,.cls-3,.cls-9{fill:none;}.cls-10,.cls-14,.cls-15,.cls-16,.cls-17,.cls-19,.cls-2,.cls-20,.cls-21,.cls-22,.cls-28,.cls-3,.cls-9{stroke:#000;}.cls-10,.cls-11,.cls-14,.cls-19,.cls-2,.cls-20,.cls-21,.cls-26,.cls-28,.cls-29,.cls-31{stroke-linecap:round;}.cls-14,.cls-17,.cls-18,.cls-19,.cls-2,.cls-20,.cls-21,.cls-26,.cls-28,.cls-29,.cls-31{stroke-linejoin:round;}.cls-10,.cls-11,.cls-19,.cls-2,.cls-20,.cls-3,.cls-9{stroke-width:0.8px;}.cls-10,.cls-11,.cls-15,.cls-16,.cls-22,.cls-25,.cls-27,.cls-3,.cls-9{stroke-miterlimit:10;}.cls-26,.cls-4{fill:#2e7fb6;}.cls-25,.cls-5{fill:#5db784;}.cls-27,.cls-6{fill:#ede249;}.cls-13,.cls-7{font-size:8px;}.cls-32,.cls-7{font-family:HelveticaNeue-Medium, Helvetica Neue;font-weight:500;}.cls-31,.cls-8{fill:#fff;}.cls-17,.cls-18,.cls-9{stroke-linecap:square;}.cls-11{stroke:#646464;}.cls-12{fill:#646464;}.cls-13,.cls-23{font-family:HelveticaNeue, Helvetica Neue;}.cls-17,.cls-18{stroke-width:1.2px;}.cls-18{stroke:#8c8c8c;}.cls-19{stroke-dasharray:3.95 3.95;}.cls-20{stroke-dasharray:3.94 3.94;}.cls-21,.cls-22,.cls-28{stroke-width:0.5px;}.cls-23{font-size:7px;}.cls-24{clip-path:url(#clip-path);}.cls-25{stroke:#5db784;}.cls-26{stroke:#2e7fb6;}.cls-26,.cls-29,.cls-31{stroke-width:0.75px;}.cls-27{stroke:#ede249;}.cls-28{opacity:0.5;}.cls-29,.cls-31{stroke:#424242;}.cls-30{fill:#d7d7d7;}.cls-32{font-size:9px;}.cls-33{clip-path:url(#clip-path-2);}</style><clipPath id="clip-path" transform="translate(-4.02 -2.65)"><path class="cls-1" d="M86,111.59h4.28c1.11,0,2,1.22,2,2.74V150.7c0,1.51-.89,2.74-2,2.74H86c-1.11,0-2-1.23-2-2.74V114.33C84,112.81,84.9,111.59,86,111.59Z"/></clipPath><clipPath id="clip-path-2" transform="translate(-4.02 -2.65)"><path class="cls-1" d="M551.44,113.63h4.28c1.1,0,2,1.23,2,2.74v36.38c0,1.51-.9,2.74-2,2.74h-4.28c-1.11,0-2-1.23-2-2.74V116.37C549.44,114.86,550.33,113.63,551.44,113.63Z"/></clipPath></defs><title>fig1_goal</title><path class="cls-2" d="M6.52,182.8h97a2,2,0,0,1,2.1,2V263a2.05,2.05,0,0,1-2.1,2h-97a2.05,2.05,0,0,1-2.1-2V184.8A2,2,0,0,1,6.52,182.8Z" transform="translate(-4.02 -2.65)"/><path class="cls-2" d="M164.43,92.92h97a2.05,2.05,0,0,1,2.1,2v78.21a2.05,2.05,0,0,1-2.1,2h-97a2.05,2.05,0,0,1-2.1-2V94.92A2.05,2.05,0,0,1,164.43,92.92Z" transform="translate(-4.02 -2.65)"/><path class="cls-2" d="M471.46,92.92h97a2.05,2.05,0,0,1,2.1,2v78.21a2.05,2.05,0,0,1-2.1,2h-97a2.05,2.05,0,0,1-2.1-2V94.92A2.05,2.05,0,0,1,471.46,92.92Z" transform="translate(-4.02 -2.65)"/><path class="cls-2" d="M318.23,92.92h97a2.05,2.05,0,0,1,2.1,2v78.21a2.05,2.05,0,0,1-2.1,2h-97a2.05,2.05,0,0,1-2.1-2V94.92A2.05,2.05,0,0,1,318.23,92.92Z" transform="translate(-4.02 -2.65)"/><line class="cls-2" x1="113.53" y1="132.12" x2="156.93" y2="132.12"/><polygon points="156.79 132.12 150.39 129.72 150.39 134.52 156.79 132.12"/><polygon class="cls-3" points="156.79 132.12 150.39 129.72 150.39 134.52 156.79 132.12"/><path class="cls-2" d="M106.21,45h9.34a2.1,2.1,0,0,1,2,2.2v86.66" transform="translate(-4.02 -2.65)"/><path class="cls-2" d="M106.21,225.53h9.34a2.1,2.1,0,0,0,2-2.2v-96" transform="translate(-4.02 -2.65)"/><path class="cls-2" d="M6.52,92.92h97a2.05,2.05,0,0,1,2.1,2v78.21a2.05,2.05,0,0,1-2.1,2h-97a2.05,2.05,0,0,1-2.1-2V94.92A2.05,2.05,0,0,1,6.52,92.92Z" transform="translate(-4.02 -2.65)"/><path class="cls-4" d="M33.92,148.72a24.09,24.09,0,1,1,34.08,0,24.09,24.09,0,0,1-34.08,0" transform="translate(-4.02 -2.65)"/><path class="cls-5" d="M38.9,143.83a17.06,17.06,0,1,1,24.12,0,17.05,17.05,0,0,1-24.12,0" transform="translate(-4.02 -2.65)"/><path class="cls-6" d="M44.57,138.15a9,9,0,1,1,12.78,0,9,9,0,0,1-12.78,0" transform="translate(-4.02 -2.65)"/><path class="cls-2" d="M6.52,3.05h97a2,2,0,0,1,2.1,2v78.2a2,2,0,0,1-2.1,2h-97a2,2,0,0,1-2.1-2V5.05A2,2,0,0,1,6.52,3.05Z" transform="translate(-4.02 -2.65)"/><text class="cls-7" transform="translate(5.89 11.14)">mechanistic model</text><line class="cls-3" x1="20.93" y1="28.64" x2="20.93" y2="44"/><line class="cls-3" x1="20.93" y1="28.64" x2="79.95" y2="28.64"/><line class="cls-3" x1="20.93" y1="48.63" x2="20.93" y2="63.61"/><line class="cls-3" x1="20.93" y1="63.61" x2="79.95" y2="63.61"/><line class="cls-3" x1="50.16" y1="22.72" x2="50.16" y2="28.64"/><line class="cls-3" x1="50.16" y1="63.8" x2="50.16" y2="69.72"/><line class="cls-3" x1="16.55" y1="43.91" x2="25.25" y2="43.91"/><line class="cls-3" x1="16.55" y1="48.53" x2="25.25" y2="48.53"/><path class="cls-8" d="M55.66,72.36a1.48,1.48,0,1,1-1.48-1.48A1.49,1.49,0,0,1,55.66,72.36Z" transform="translate(-4.02 -2.65)"/><path class="cls-3" d="M55.66,72.36a1.48,1.48,0,1,1-1.48-1.48A1.49,1.49,0,0,1,55.66,72.36Z" transform="translate(-4.02 -2.65)"/><path class="cls-8" d="M55.66,25.37a1.48,1.48,0,1,1-1.48-1.48A1.48,1.48,0,0,1,55.66,25.37Z" transform="translate(-4.02 -2.65)"/><path class="cls-3" d="M55.66,25.37a1.48,1.48,0,1,1-1.48-1.48A1.48,1.48,0,0,1,55.66,25.37Z" transform="translate(-4.02 -2.65)"/><line class="cls-3" x1="79.77" y1="57.69" x2="79.77" y2="63.61"/><line class="cls-9" x1="77.55" y1="57.78" x2="82.17" y2="57.78"/><line class="cls-10" x1="79.77" y1="49" x2="79.77" y2="54.92"/><line class="cls-3" x1="75.38" y1="55.19" x2="84.08" y2="55.19"/><line class="cls-3" x1="79.77" y1="28.46" x2="79.77" y2="33.57"/><line class="cls-10" x1="81.54" y1="47.67" x2="77.93" y2="45.58"/><line class="cls-10" x1="77.79" y1="45.51" x2="81.4" y2="43.42"/><line class="cls-10" x1="79.78" y1="48.78" x2="81.58" y2="47.74"/><line class="cls-10" x1="81.58" y1="34.55" x2="79.78" y2="33.51"/><line class="cls-10" x1="81.54" y1="43.29" x2="77.93" y2="41.2"/><line class="cls-10" x1="77.79" y1="41.13" x2="81.4" y2="39.04"/><line class="cls-10" x1="81.54" y1="38.92" x2="77.93" y2="36.83"/><line class="cls-10" x1="77.79" y1="36.76" x2="81.4" y2="34.67"/><line class="cls-3" x1="60.06" y1="57.69" x2="60.06" y2="63.61"/><line class="cls-9" x1="57.84" y1="57.78" x2="62.47" y2="57.78"/><line class="cls-10" x1="60.06" y1="49" x2="60.06" y2="54.92"/><line class="cls-3" x1="55.68" y1="55.19" x2="64.37" y2="55.19"/><line class="cls-3" x1="60.06" y1="28.46" x2="60.06" y2="33.57"/><line class="cls-10" x1="61.83" y1="47.67" x2="58.22" y2="45.58"/><line class="cls-10" x1="58.08" y1="45.51" x2="61.69" y2="43.42"/><line class="cls-10" x1="60.07" y1="48.78" x2="61.88" y2="47.74"/><line class="cls-10" x1="61.88" y1="34.55" x2="60.07" y2="33.51"/><line class="cls-10" x1="61.83" y1="43.29" x2="58.22" y2="41.2"/><line class="cls-10" x1="58.08" y1="41.13" x2="61.69" y2="39.04"/><line class="cls-10" x1="61.83" y1="38.92" x2="58.22" y2="36.83"/><line class="cls-10" x1="58.08" y1="36.76" x2="61.69" y2="34.67"/><line class="cls-3" x1="39.87" y1="57.69" x2="39.87" y2="63.61"/><line class="cls-9" x1="37.65" y1="55.19" x2="42.28" y2="55.19"/><line class="cls-10" x1="39.87" y1="49" x2="39.87" y2="54.92"/><line class="cls-3" x1="39.87" y1="28.46" x2="39.87" y2="33.57"/><line class="cls-10" x1="41.64" y1="47.67" x2="38.03" y2="45.58"/><line class="cls-10" x1="37.89" y1="45.51" x2="41.5" y2="43.42"/><line class="cls-10" x1="39.88" y1="48.78" x2="41.69" y2="47.74"/><line class="cls-10" x1="41.69" y1="34.55" x2="39.88" y2="33.51"/><line class="cls-10" x1="41.64" y1="43.29" x2="38.03" y2="41.2"/><line class="cls-10" x1="37.89" y1="41.13" x2="41.5" y2="39.04"/><line class="cls-10" x1="41.64" y1="38.92" x2="38.03" y2="36.83"/><line class="cls-10" x1="37.89" y1="36.76" x2="41.5" y2="34.67"/><line class="cls-3" x1="35.49" y1="57.78" x2="44.18" y2="57.78"/><line class="cls-11" x1="34.37" y1="47.75" x2="44.38" y2="37.7"/><polygon class="cls-12" points="45.3 39.36 46.24 35.84 42.72 36.79 45.3 39.36"/><line class="cls-11" x1="54.49" y1="47.75" x2="64.51" y2="37.7"/><polygon class="cls-12" points="65.42 39.36 66.36 35.84 62.84 36.79 65.42 39.36"/><line class="cls-11" x1="74.34" y1="47.75" x2="84.35" y2="37.7"/><polygon class="cls-12" points="85.26 39.36 86.2 35.84 82.68 36.79 85.26 39.36"/><text class="cls-7" transform="translate(5.89 100.66)">prior </text><text class="cls-7" transform="translate(5.89 190.89)">data or summary data</text><path class="cls-4" d="M485.22,123.79c-1.57-8.66,4.2-14.48,12.87-13s17,9.69,18.55,18.35-4.19,14.49-12.87,13-17-9.7-18.55-18.36" transform="translate(-4.02 -2.65)"/><path class="cls-5" d="M489.69,123.92c-1.48-6.19,2.36-10.08,8.58-8.67s12.44,7.57,13.91,13.77-2.37,10.08-8.58,8.67-12.44-7.57-13.91-13.77" transform="translate(-4.02 -2.65)"/><path class="cls-6" d="M495.31,125.2c-.74-3.1,1.18-5,4.29-4.34a10.1,10.1,0,0,1,6.95,6.88c.74,3.1-1.18,5-4.29,4.34a10.12,10.12,0,0,1-6.95-6.88" transform="translate(-4.02 -2.65)"/><path class="cls-4" d="M529.93,139.32c7.71,1.66,11,8.67,7.36,15.66s-12.84,11.31-20.55,9.65-11-8.67-7.36-15.66,12.84-11.31,20.55-9.65" transform="translate(-4.02 -2.65)"/><path class="cls-5" d="M528.59,143.13c5.62.88,7.81,5.56,4.91,10.44s-9.81,8.13-15.42,7.25-7.81-5.56-4.91-10.44a16.39,16.39,0,0,1,15.42-7.25" transform="translate(-4.02 -2.65)"/><path class="cls-6" d="M526,147.55c2.8.45,3.9,2.78,2.45,5.22a8.19,8.19,0,0,1-7.71,3.63c-2.81-.44-3.91-2.78-2.45-5.22a8.2,8.2,0,0,1,7.71-3.63" transform="translate(-4.02 -2.65)"/><text class="cls-7" transform="translate(469.92 100.29)">posterior</text><text class="cls-13" transform="translate(500.09 257.46)">consistent sample</text><text class="cls-13" transform="translate(496.91 6.89)">inconsistent sample</text><text class="cls-7" transform="translate(316.75 100.66)">neural density estimator</text><text class="cls-7" transform="translate(163.21 101.16)">simulated data</text><path d="M524.12,131.32a1.36,1.36,0,0,0-.4-1.87,1.34,1.34,0,0,0-1.87.4,1.37,1.37,0,0,0,.41,1.88,1.33,1.33,0,0,0,1.86-.41" transform="translate(-4.02 -2.65)"/><path class="cls-14" d="M522.59,130.59s15.52-6.84,23.82-29.25c5.55-15,6.13-32.21,5.89-42" transform="translate(-4.02 -2.65)"/><polygon points="548.09 53.65 549.41 56.81 547.01 56.9 548.09 53.65"/><polygon class="cls-15" points="548.09 53.65 549.41 56.81 547.01 56.9 548.09 53.65"/><path class="cls-16" d="M522.61,151.15a1.43,1.43,0,0,0,0,2,1.29,1.29,0,0,0,1.89,0,1.43,1.43,0,0,0,0-2,1.29,1.29,0,0,0-1.89,0" transform="translate(-4.02 -2.65)"/><path class="cls-14" d="M523.43,152.23s15.56,7.17,25.09,21.9a55.13,55.13,0,0,1,8.32,24.19" transform="translate(-4.02 -2.65)"/><polygon class="cls-16" points="552.96 199.38 551.64 195.74 554.01 195.62 552.96 199.38"/><polygon class="cls-15" points="552.96 199.38 551.64 195.74 554.01 195.62 552.96 199.38"/><path class="cls-16" d="M501.66,125.6a1.33,1.33,0,0,1-.38,1.88,1.39,1.39,0,0,1-1.91-.37,1.33,1.33,0,0,1,.38-1.88,1.38,1.38,0,0,1,1.91.37" transform="translate(-4.02 -2.65)"/><path class="cls-14" d="M500.79,126.19a45.5,45.5,0,0,0,13.31-21.71c4-15.38-2.8-24.12-4.29-26.3" transform="translate(-4.02 -2.65)"/><polygon class="cls-16" points="504.17 73.13 505.15 76.91 507.1 75.02 504.17 73.13"/><polyline class="cls-17" points="507.77 45.9 507.8 45.9 507.93 45.92 507.95 45.91 507.98 45.93 508.01 45.92 508.16 45.95 508.19 45.95 508.22 45.95 508.25 45.94 508.34 45.95 508.42 45.97 508.44 45.98 508.45 45.98 508.7 46.01 508.73 46.02 508.8 46.01 508.83 46.02 508.86 46.01 508.99 46.06 509.01 46.07 509.06 46.07 509.08 46.07 509.11 46.08 509.14 46.09 509.45 46.1 509.49 46.11 509.51 46.11 509.54 46.13 509.57 46.12 509.61 46.13 509.64 46.14 509.67 46.14 509.68 46.13 509.77 46.13 509.81 46.14 509.86 46.14 509.97 46.15 510 46.15 510.06 46.16 510.08 46.16 510.15 46.15 510.17 46.15 510.25 46.15 510.27 46.16 510.3 46.14 510.33 46.15 510.52 46.2 510.56 46.2 510.58 46.2 510.61 46.2 510.67 46.21 510.7 46.21 510.71 46.21 510.72 46.21 510.76 46.22 510.78 46.21 510.83 46.21 510.85 46.22 510.97 46.22 510.99 46.22 511.02 46.23 511.05 46.23 511.07 46.24 511.09 46.25 511.13 46.25 511.2 46.26 511.22 46.26 511.23 46.25 511.24 46.25 511.27 46.26 511.37 46.29 511.39 46.29 511.44 46.28 511.46 46.28 511.5 46.29 511.61 46.28 511.64 46.29 511.79 46.28 511.8 46.28 511.83 46.27 511.9 46.28 511.95 46.27 511.97 46.28 512 46.27 512.02 46.27 512.03 46.27 512.05 46.27 512.14 46.15 512.18 46.08 512.77 45.27 512.79 45.24 512.82 45.2 512.98 44.99 513.02 44.97 513.04 44.94 513.11 44.86 513.22 44.73 513.33 44.62 513.36 44.6 513.44 44.5 513.62 44.33 513.64 44.31 513.84 44.1 513.9 44.03 513.94 44 513.98 43.95 514.04 43.9 514.13 43.83 514.16 43.79 514.3 43.67 514.39 43.62 514.43 43.6 514.44 43.58 514.47 43.56 514.5 43.54 514.7 43.37 514.74 43.34 514.87 43.27 514.9 43.26 514.93 43.22 515.15 43.03 515.17 43.02 515.29 42.94 515.33 42.92 515.37 42.89 515.4 42.88 515.44 42.85 515.46 42.84 515.51 42.81 515.6 42.74 515.63 42.71 515.65 42.69 515.8 42.58 515.83 42.57 515.94 42.51 515.98 42.48 516 42.47 516.03 42.45 516.1 42.42 516.13 42.42 516.17 42.38 516.22 42.34 516.25 42.32 516.3 42.27 516.32 42.27 516.37 42.25 516.45 42.23 516.5 42.2 516.62 42.13 516.64 42.13 516.68 42.1 516.72 42.1 516.76 42.07 516.81 42.02 516.87 41.98 516.9 41.96 516.95 41.92 516.97 41.92 517.01 41.89 517.09 41.87 517.13 41.85 517.18 41.84 517.22 41.8 517.25 41.78 517.28 41.77 517.3 41.75 517.32 41.75 517.66 41.55 517.69 41.53 517.81 41.45 517.94 41.33 518.09 41.23 518.14 41.19 518.16 41.18 518.26 41.1 518.32 41.04 518.4 40.96 518.48 40.86 518.65 40.59 518.75 40.4 518.9 39.95 518.96 39.63 519 39.29 519.05 38.72 519.09 37.89 519.12 36.56 519.15 33.89 519.17 26.81 519.22 13.97 519.25 13.2 519.25 13.22 519.27 13.48 519.3 14.6 519.36 17.48 519.45 25.18 519.59 36.31 519.72 43.38 519.78 45.36 519.84 46.28 519.91 46.81 519.98 47.09 520.02 47.17 520.06 47.2 520.09 47.2 520.12 47.21 520.25 47.14 520.3 47.1 520.44 46.94 520.46 46.93 520.52 46.88 520.56 46.83 520.82 46.6 520.84 46.59 520.91 46.53 521.12 46.33 521.56 45.96 521.57 45.95 521.6 45.92 521.63 45.9 521.74 45.8 521.78 45.78 521.82 45.75 521.96 45.65 521.99 45.64 522.04 45.59 522.08 45.57 522.15 45.51 522.17 45.49 522.24 45.44 522.31 45.39 522.34 45.38 522.34 45.38 522.39 45.34 522.44 45.33 522.47 45.29 522.88 45.07 522.9 45.05 522.93 45.06 522.96 45.04 522.99 45.02 523.01 45.01 523.05 44.98 523.08 44.97 523.13 44.94 523.16 44.93 523.19 44.92 523.24 44.92 523.27 44.9 523.29 44.9 523.33 44.88 523.35 44.88 523.39 44.87 523.42 44.86 523.47 44.84 523.5 44.83 523.57 44.79 523.59 44.78 523.61 44.79 523.62 44.78 523.66 44.75 523.69 44.74 523.72 44.72 523.79 44.7 523.81 44.69 523.92 44.64 523.95 44.63 524.03 44.6 524.23 44.52 524.28 44.49 524.3 44.48 524.49 44.45 524.54 44.44 524.57 44.44 524.59 44.43 524.62 44.42 524.66 44.42 524.74 44.39 524.83 44.36 524.85 44.35 524.91 44.34 524.97 44.33 525.07 44.27 525.1 44.27 525.14 44.26 525.19 44.24 525.29 44.2 525.32 44.21 525.38 44.18 525.4 44.17 525.6 44.1 525.62 44.1 525.75 44.03 525.78 44.03 525.87 44 525.93 43.98 526 43.95 526.03 43.94 526.08 43.95 526.16 43.93 526.18 43.93 526.23 43.91 526.26 43.9 526.43 43.84 526.46 43.85 526.49 43.85 526.52 43.85 526.55 43.84 526.57 43.83 526.63 43.82 526.72 43.81 526.74 43.81 527.02 43.75 527.06 43.75 527.09 43.74 527.14 43.73 527.2 43.71 527.25 43.72 527.27 43.71 527.32 43.7 527.35 43.68 527.38 43.69 527.43 43.68 527.5 43.65 527.53 43.64 527.55 43.65 527.57 43.65 527.69 43.59 527.72 43.6 527.77 43.59 527.79 43.58 527.81 43.57 527.82 43.58 527.85 43.58 527.92 43.57 527.95 43.56 528.07 43.54 528.16 43.55 528.19 43.55 528.26 43.52 528.29 43.52 528.47 43.52 528.53 43.51 528.56 43.51 528.58 43.5 528.61 43.51 528.78 43.47 528.87 43.45 529.33 43.43 529.35 43.42 529.38 43.42 529.42 43.39 529.45 43.39 529.58 43.38 529.6 43.37 529.64 43.37 529.67 43.37 529.69 43.37 529.71 43.36 529.75 43.36 529.82 43.36 529.85 43.36 529.9 43.34 529.98 43.36 530 43.36 530.06 43.36 530.09 43.36 530.11 43.35 530.17 43.32 530.19 43.32 530.25 43.32 530.27 43.32 530.29 43.33 530.32 43.33 530.56 43.3 530.58 43.3 530.62 43.31 530.65 43.28 530.9 43.31 530.99 43.28 531.12 43.28 531.15 43.28 531.18 43.28 531.2 43.29 531.22 43.28 531.24 43.27 531.29 43.27 531.52 43.22 531.54 43.22 531.58 43.22 531.66 43.23 531.69 43.23 531.71 43.23 531.76 43.25 531.79 43.24 531.81 43.24 531.85 43.23 531.91 43.23 531.94 43.23 531.99 43.22 532.02 43.21 532.05 43.21 532.08 43.21 532.11 43.21 532.13 43.21 532.18 43.21 532.25 43.21 532.29 43.2 532.38 43.21 532.41 43.21 532.45 43.21 532.5 43.2 532.51 43.19 532.52 43.2 532.56 43.2 532.6 43.19 532.63 43.18 532.66 43.18 532.7 43.18 532.77 43.17 532.81 43.16 532.84 43.17 532.88 43.16 532.92 43.18 532.94 43.17 533.03 43.2 533.07 43.19 533.13 43.2 533.18 43.22 533.22 43.22 533.29 43.2 533.45 43.2 533.47 43.19 533.5 43.19 533.53 43.17 533.57 43.17 533.77 43.16 533.83 43.18 533.87 43.17 533.89 43.18 534.04 43.22 534.08 43.21 534.11 43.21 534.14 43.2 534.16 43.2 534.22 43.19 534.26 43.18 534.4 43.2 534.45 43.2 534.47 43.2 534.51 43.18 534.56 43.19 534.58 43.19 534.58 43.19 534.65 43.17 534.8 43.16 534.87 43.18 534.92 43.18 535.09 43.18 535.13 43.18 535.16 43.18 535.24 43.15 535.25 43.15 535.39 43.12 535.46 43.14 535.49 43.13 535.53 43.12 535.55 43.12 535.58 43.11 535.78 43.07 535.8 43.07 535.83 43.07 535.88 43.09 535.9 43.09 535.98 43.08 536.02 43.07 536.07 43.07 536.12 43.05 536.15 43.05 536.19 43.05 536.27 43.07 536.37 43.05 536.41 43.05 536.46 43.06 536.49 43.05 536.51 43.05 536.54 43.04 536.56 43.05 536.59 43.06 536.62 43.05 536.86 43.02 536.89 43.01 537.61 43 537.63 43 537.66 43 537.72 43.01 537.76 43.01 537.81 43.02 537.91 43 537.93 43 538.08 43.01 538.1 43 538.12 43 538.18 42.98 538.2 42.99 538.23 42.99 538.26 42.99 538.33 42.99 538.35 42.99 538.64 43.01 538.67 43.01 538.71 43 539.13 42.99 539.15 42.99 539.18 42.99 539.27 42.99 539.3 42.98 539.5 42.97 539.52 42.97 539.54 42.98 539.57 42.98 539.63 42.98 539.69 42.96 539.71 42.97 539.71 42.96 539.8 42.93 539.84 42.95 540 42.92 540.03 42.91 540.06 42.92 540.1 42.91 540.12 42.91 540.17 42.89 540.23 42.89 540.26 42.88 540.49 42.87 540.52 42.88 540.54 42.88 540.58 42.87 540.68 42.88 540.73 42.87 540.76 42.87 540.99 42.86 541 42.86 541.03 42.86 541.15 42.85 541.24 42.84 541.26 42.84 541.33 42.82 541.36 42.83 541.39 42.84 541.43 42.84 541.45 42.84 541.49 42.85 541.52 42.85 541.55 42.85 541.57 42.84 541.57 42.85 541.59 42.84 541.6 42.84 541.62 42.84 541.74 42.85 541.76 42.85 541.82 42.86 541.84 42.86 541.88 42.86 542.04 42.85 542.12 42.83 542.15 42.83 542.18 42.83 542.23 42.83 542.27 42.84 542.38 42.8 542.4 42.81 542.46 42.81 542.58 42.81 542.59 42.8 542.62 42.81 542.65 42.81 542.87 42.82 542.96 42.79 542.98 42.79 543.04 42.79 543.08 42.78 543.1 42.77 543.21 42.77 543.28 42.75 543.34 42.77 543.42 42.77 543.45 42.77 543.8 42.77 543.84 42.78 543.88 42.77 543.9 42.78 543.91 42.78 543.99 42.78 544.32 42.81 544.35 42.8 544.38 42.79 544.42 42.79 544.45 42.79 544.48 42.78 544.5 42.78 544.59 42.77 544.65 42.77 544.71 42.78 544.74 42.78 544.79 42.78 544.95 42.77 545.23 42.77 545.27 42.76 545.3 42.76 545.35 42.75 545.37 42.76 545.45 42.76 545.46 42.76 545.49 42.74 545.52 42.75 545.55 42.74 545.82 42.73 545.85 42.73 545.87 42.72 545.89 42.72 545.94 42.72 545.99 42.7 546.04 42.71 546.07 42.72 546.19 42.7 546.2 42.7 546.21 42.7 546.24 42.7 546.32 42.72 546.35 42.73 546.37 42.73 546.73 42.75 546.75 42.75 546.81 42.76 546.84 42.75 546.86 42.75 546.96 42.74 546.98 42.76 547.03 42.77 547.06 42.77 547.12 42.76 547.16 42.77 547.26 42.76 547.29 42.76 547.31 42.76 547.33 42.75 547.37 42.75 547.4 42.75 547.44 42.74 547.46 42.76 547.48 42.75 547.5 42.74 547.53 42.75 547.57 42.74 547.6 42.76 547.63 42.76 547.68 42.76 547.91 42.75 547.95 42.74 548.14 42.75 548.17 42.74 548.25 42.73 548.41 42.73 548.46 42.71 548.54 42.69 548.6 42.69 548.67 42.7 548.7 42.71 548.72 42.71 548.75 42.7 548.81 42.72 548.84 42.71 548.89 42.72 548.92 42.7 548.94 42.71 548.98 42.72 549 42.71 549.04 42.71 549.16 42.68 549.41 42.7 549.43 42.7 549.52 42.72 549.55 42.72 549.68 42.67 549.69 42.67 549.7 42.67 549.76 42.67 549.78 42.66 549.78 42.66 549.8 42.67 549.82 42.66 549.85 42.66 549.95 42.66 549.99 42.67 550.02 42.67 550.5 42.67 550.53 42.67 550.61 42.65 550.65 42.67 550.68 42.66 550.83 42.66 550.84 42.65 551.2 42.68 551.23 42.67 551.28 42.69 551.33 42.68 551.36 42.68 551.4 42.68 551.42 42.67 551.45 42.67 551.56 42.67 551.59 42.66 551.63 42.65 551.66 42.65 551.7 42.66 551.73 42.65 551.76 42.65 551.78 42.65 551.81 42.64 551.87 42.63 551.9 42.64 551.95 42.64 551.99 42.64 552 42.65 552.04 42.65 552.32 42.65 552.34 42.65 552.37 42.64 552.39 42.64 552.44 42.63 552.48 42.64 552.52 42.63 552.55 42.64 552.58 42.62 552.61 42.62 552.63 42.62 552.65 42.63 552.67 42.63 553.35 42.62 553.38 42.61 553.4 42.6 553.43 42.59 553.73 42.56 553.86 42.55 553.89 42.54 553.91 42.54 553.92 42.54 554.14 42.54 554.17 42.54 554.39 42.53 554.41 42.54 554.46 42.53 554.64 42.49 554.86 42.49 555.09 42.87 555.16 42.95 555.18 42.98 555.2 42.99 555.25 43.07 555.35 43.21 555.56 43.47 555.58 43.49 556.07 44.07 556.09 44.09 556.14 44.16 556.41 44.46 556.43 44.48 556.46 44.51 556.51 44.58 556.62 44.67 557.1 45.05 557.14 45.08 557.23 45.15 557.25 45.17 557.28 45.19 557.33 45.22 557.34 45.23 557.37 45.25 557.57 45.38 557.62 45.43 557.72 45.5 557.84 45.59 557.89 45.62 557.92 45.65 557.94 45.66 557.97 45.68 558 45.69 558.05 45.73 558.08 45.75 558.11 45.78 558.17 45.8 558.2 45.83 558.25 45.85 558.28 45.87 558.32 45.91 558.35 45.92 558.38 45.94 558.41 45.97 558.42 45.97 558.45 46 558.49 46.03 558.56 46.06 558.63 46.1 558.65 46.11 558.7 46.13 558.71 46.14 558.77 46.16 559.05 46.33 559.08 46.32 559.13 46.34"/><polyline class="cls-17" points="502.25 244.57 502.31 244.57 502.35 244.56 502.42 244.56 502.44 244.57 502.51 244.59 502.55 244.6 502.58 244.61 502.61 244.62 502.64 244.61 502.76 244.63 502.93 244.63 502.96 244.63 503 244.63 503.14 244.66 503.17 244.66 503.2 244.66 503.22 244.66 503.27 244.66 503.32 244.67 503.35 244.67 503.38 244.67 504.01 244.69 504.17 244.72 504.19 244.71 504.23 244.71 504.26 244.71 504.29 244.71 504.32 244.71 504.33 244.71 504.36 244.7 504.44 244.72 504.48 244.75 504.54 244.74 504.59 244.72 504.62 244.74 504.64 244.72 504.67 244.73 504.68 244.72 504.72 244.71 504.94 244.72 504.98 244.7 505.06 244.69 505.12 244.69 505.18 244.69 505.26 244.68 505.3 244.7 505.33 244.69 505.38 244.7 505.41 244.7 505.44 244.71 505.52 244.72 505.56 244.72 505.59 244.74 505.62 244.73 505.67 244.73 505.68 244.74 505.72 244.75 506.37 244.75 506.4 244.73 506.46 244.75 506.49 244.75 506.73 244.74 506.77 244.72 506.81 244.72 506.87 244.72 506.9 244.72 506.98 244.7 507 244.7 507.04 244.7 507.12 244.68 507.21 244.67 507.24 244.68 507.25 244.68 507.26 244.67 507.27 244.64 507.55 244.22 507.61 244.14 507.72 244 507.76 243.95 507.92 243.75 507.94 243.72 507.99 243.66 508.06 243.55 508.11 243.49 508.2 243.36 508.22 243.35 508.3 243.23 508.31 243.21 508.53 242.95 508.55 242.93 508.57 242.89 508.73 242.73 508.79 242.67 509.14 242.3 509.18 242.27 509.25 242.19 509.27 242.16 509.36 242.07 509.38 242.04 509.43 241.97 509.49 241.89 509.52 241.88 509.61 241.78 509.7 241.67 509.84 241.57 509.86 241.56 509.9 241.54 509.96 241.48 510.15 241.3 510.2 241.27 510.36 241.13 510.57 240.96 510.62 240.91 510.7 240.86 510.78 240.78 510.87 240.7 510.9 240.69 510.96 240.63 511.01 240.6 511.02 240.6 511.17 240.49 511.19 240.48 511.98 239.94 512 239.94 512.05 239.91 512.07 239.9 512.13 239.84 512.16 239.84 512.36 239.71 512.41 239.68 512.45 239.66 512.49 239.62 512.52 239.6 512.55 239.59 512.71 239.5 513.08 239.21 513.13 239.17 513.14 239.16 513.17 239.14 513.28 239.04 513.31 239.02 513.49 238.87 513.52 238.85 513.54 238.83 513.61 238.75 513.82 238.51 513.88 238.42 513.91 238.38 513.95 238.34 514.05 238.18 514.2 237.89 514.28 237.64 514.4 237.13 514.48 236.53 514.53 235.8 514.58 234.67 514.61 232.76 514.64 228.62 514.68 214.6 514.72 206.88 514.75 206.18 514.76 206.22 514.79 206.81 514.84 208.86 514.92 213.93 515.25 238.84 515.33 242.45 515.41 244.15 515.48 245 515.56 245.5 515.64 245.72 515.68 245.76 515.71 245.78 515.73 245.78 515.83 245.73 516.07 245.45 516.12 245.39 516.14 245.38 516.2 245.29 516.28 245.18 516.36 245.07 516.39 245.02 516.49 244.92 516.5 244.89 516.54 244.84 516.59 244.77 516.64 244.71 516.71 244.62 516.8 244.5 516.86 244.42 516.92 244.36 516.97 244.31 517 244.28 517.03 244.25 517.06 244.21 517.14 244.12 517.22 244.02 517.25 244 517.31 243.94 517.33 243.91 517.38 243.86 517.43 243.82 517.48 243.74 517.5 243.72 517.54 243.68 517.61 243.61 517.66 243.56 517.76 243.44 517.83 243.38 517.86 243.36 517.97 243.25 518.08 243.13 518.11 243.11 518.16 243.06 518.21 243.02 518.25 243 518.28 242.99 518.32 242.95 518.36 242.91 518.43 242.85 518.48 242.78 518.56 242.71 518.67 242.61 518.77 242.53 518.98 242.37 519.13 242.22 519.37 242.08 519.39 242.07 519.44 242.01 519.55 241.93 519.58 241.91 519.63 241.88 519.76 241.78 519.79 241.77 519.81 241.76 519.86 241.73 520.18 241.51 520.23 241.47 520.26 241.46 520.38 241.35 520.52 241.24 520.56 241.23 520.59 241.22 520.63 241.19 521.14 240.93 521.2 240.91 521.25 240.88 521.34 240.83 521.37 240.84 521.37 240.83 521.45 240.81 521.71 240.69 521.74 240.68 521.77 240.66 521.79 240.65 521.92 240.6 521.97 240.57 522 240.57 522.02 240.55 522.08 240.5 522.22 240.42 522.26 240.41 522.28 240.4 522.33 240.38 522.34 240.39 522.35 240.38 522.48 240.33 522.56 240.3 522.59 240.3 522.63 240.28 522.65 240.27 522.7 240.26 522.73 240.24 522.77 240.22 522.8 240.2 522.86 240.18 522.89 240.16 523.04 240.08 523.07 240.06 523.12 240.02 523.17 240 523.25 239.98 523.29 239.96 523.33 239.94 523.42 239.91 523.47 239.88 523.69 239.78 523.73 239.77 523.75 239.76 523.77 239.75 523.87 239.7 523.9 239.71 523.91 239.7 523.93 239.71 523.99 239.67 524.08 239.63 524.11 239.63 524.17 239.63 524.2 239.62 524.23 239.61 524.29 239.58 524.37 239.57 524.4 239.56 524.42 239.56 524.47 239.54 524.78 239.44 524.8 239.43 524.89 239.38 525.01 239.34 525.05 239.33 525.06 239.33 525.11 239.29 525.27 239.22 525.29 239.21 525.38 239.15 525.41 239.13 525.52 239.1 525.55 239.09 525.59 239.06 525.6 239.06 525.61 239.05 525.83 238.89 525.9 238.83 525.93 238.82 525.97 238.78 526.02 238.75 526.07 238.71 526.14 238.64 526.18 238.59 526.51 238.21 526.56 238.14 526.59 238.1 526.67 237.98 526.74 237.82 526.81 237.66 526.9 237.34 527.01 236.7 527.07 235.96 527.12 234.84 527.16 233.16 527.19 229.7 527.22 220.77 527.27 207.3 527.3 206.22 527.3 206.2 527.31 206.22 527.33 206.49 527.37 207.74 527.43 211.02 527.53 219.07 527.71 233.31 527.85 241.28 527.92 243.54 527.99 244.69 528.08 245.4 528.15 245.71 528.21 245.78 528.25 245.81 528.28 245.85 528.29 245.84 528.32 245.84 528.34 245.83 528.37 245.81 528.52 245.67 528.55 245.63 528.57 245.61 528.68 245.45 528.72 245.42 528.79 245.31 528.82 245.28 528.88 245.19 528.9 245.16 528.95 245.09 528.99 245.06 529.13 244.87 529.15 244.86 529.29 244.69 529.71 244.25 529.74 244.22 529.78 244.2 529.87 244.1 529.89 244.08 529.99 243.95 530.01 243.94 530.07 243.87 530.23 243.73 530.4 243.59 530.45 243.54 530.83 243.19 530.87 243.15 530.93 243.09 530.96 243.07 531.17 242.89 531.18 242.88 531.23 242.83 531.28 242.81 531.36 242.73 531.4 242.72 531.43 242.71 531.53 242.64 531.55 242.62 532.08 242.21 532.1 242.21 532.1 242.21 532.2 242.15 532.22 242.14 532.31 242.08 532.33 242.08 532.4 242.02 532.43 242.01 532.79 241.79 532.84 241.75 532.91 241.73 532.94 241.72 532.97 241.71 533.19 241.57 533.23 241.53 533.31 241.52 533.4 241.47 533.42 241.45 533.48 241.43 533.51 241.43 533.79 241.3 533.81 241.29 533.83 241.28 533.91 241.23 534.01 241.18 534.04 241.17 534.33 241.05 534.36 241.03 534.44 241 534.48 240.98 534.54 240.97 534.6 240.97 534.63 240.96 534.74 240.92 534.85 240.86 534.88 240.86 534.99 240.82 535.02 240.81 535.06 240.8 535.08 240.79 535.12 240.78 535.16 240.78 535.22 240.78 535.41 240.69 535.43 240.7 535.66 240.61 535.68 240.61 535.73 240.6 535.83 240.58 535.89 240.56 535.92 240.56 535.95 240.55 536.05 240.53 536.21 240.48 536.24 240.47 536.43 240.44 536.46 240.44 536.49 240.43 536.79 240.39 536.82 240.38 537.45 240.2 537.49 240.2 537.51 240.2 537.54 240.19 537.56 240.17 537.56 240.18 537.65 240.16 537.74 240.14 537.78 240.15 537.82 240.15 537.84 240.15 537.88 240.13 537.91 240.13 537.95 240.11 538.03 240.08 538.06 240.07 538.08 240.07 538.12 240.07 538.16 240.06 538.24 240.05 538.27 240.06 538.33 240.04 538.43 240.02 538.47 240.01 538.54 239.98 538.58 239.96 538.64 239.95 538.68 239.94 538.72 239.93 538.75 239.91 538.83 239.91 538.86 239.9 538.9 239.9 539.11 239.88 539.16 239.85 540.43 239.55 540.5 239.53 540.53 239.51 540.84 239.41 540.86 239.42 540.91 239.41 541.03 239.37 541.07 239.36 541.11 239.36 541.23 239.32 541.32 239.33 541.34 239.32 541.38 239.31 541.45 239.29 541.48 239.28 541.54 239.26 541.56 239.25 541.6 239.23 541.62 239.22 541.67 239.21 541.85 239.16 541.89 239.16 542.09 239.07 542.13 239.07 542.79 238.79 542.88 238.75 542.91 238.74 543.03 238.64 543.13 238.59 543.25 238.5 543.34 238.38 543.37 238.35 543.48 238.22 543.51 238.19 543.55 238.13 543.6 238.04 543.68 237.85 543.87 237.28 543.96 236.74 544.01 236.19 544.07 235.31 544.11 233.88 544.13 231.46 544.16 225.1 544.24 206.76 544.26 206.22 544.26 206.23 544.28 206.39 544.31 207.31 544.37 210.01 544.46 216.37 544.69 235.16 544.81 241.43 544.89 243.74 544.97 244.93 545.04 245.48 545.11 245.71 545.21 245.86 545.25 245.86 545.39 245.8 545.45 245.73 545.52 245.66 545.58 245.6 545.61 245.58 545.7 245.47 545.73 245.44 545.76 245.41 545.83 245.34 545.84 245.32 545.93 245.2 545.97 245.16 546.21 244.91 546.24 244.88 546.28 244.83 546.47 244.66 547.06 244.06 547.08 244.05 547.12 244.02 547.16 243.96 547.33 243.82 547.38 243.77 547.38 243.78 547.41 243.76 547.5 243.69 547.51 243.69 547.51 243.68 547.57 243.63 547.64 243.58 547.68 243.51 547.78 243.45 547.91 243.34 547.97 243.31 548.03 243.26 548.11 243.19 548.17 243.11 548.31 243.04 548.4 242.97 548.46 242.94 548.48 242.93 548.84 242.74 549.65 242.19 549.69 242.18 549.75 242.15 549.79 242.15 549.82 242.14 549.86 242.13 549.89 242.12 549.91 242.11 549.98 242.07 550 242.06 550.03 242.05 550.06 242.04 550.1 242.02 550.14 242 550.19 241.97 550.28 241.93 550.3 241.92 550.33 241.91 550.5 241.86 550.52 241.85 550.54 241.83 550.63 241.8 550.68 241.78 550.77 241.75 550.8 241.73 550.85 241.72 550.87 241.72 550.91 241.69 550.95 241.67 551.02 241.66 551.05 241.66 551.4 241.55 551.43 241.54 551.47 241.53 551.54 241.51 551.59 241.49 551.62 241.49 551.64 241.49 551.69 241.47 551.74 241.44 551.79 241.44 551.82 241.43 551.86 241.42 551.91 241.4 551.96 241.37 551.99 241.38 552.02 241.37 552.08 241.35 552.12 241.33 552.15 241.32 552.17 241.32 552.2 241.3 552.3 241.28 552.38 241.25 552.39 241.25 552.65 241.18 552.68 241.18 552.73 241.15 552.75 241.16 552.8 241.15 552.84 241.11 552.9 241.11 552.94 241.09 552.98 241.08 553.01 241.08 553.04 241.08 553.19 241.03 553.24 240.99 553.35 240.98 553.48 240.97 553.52 240.98 553.56 240.96 553.59 240.94 553.64 240.93 553.69 240.94 553.73 240.92 553.94 240.87 553.96 240.86 554.09 240.84 554.11 240.84 554.16 240.84 554.19 240.84 554.22 240.83 554.25 240.81 554.29 240.81 554.31 240.81 554.34 240.81 554.41 240.78 554.46 240.77 554.57 240.71 554.59 240.7 554.63 240.69 554.67 240.69 554.69 240.69 554.75 240.66 554.77 240.67 554.81 240.66 554.86 240.64 554.91 240.64 554.94 240.64 555.03 240.63 555.07 240.62 555.25 240.57 555.34 240.56 555.36 240.56 555.38 240.54 555.8 240.49 555.84 240.49 555.89 240.47 555.93 240.47 555.95 240.46 555.98 240.45 556.03 240.45 556.07 240.45 556.22 240.42 556.25 240.42 556.28 240.41 556.33 240.42 556.35 240.42 556.36 240.42 556.37 240.41 556.39 240.42 556.42 240.42 556.47 240.41 556.51 240.4 556.53 240.39 556.58 240.39 556.62 240.38 556.8 240.41 557.2 240.31 557.34 240.53 557.38 240.58 557.49 240.73 557.5 240.75 557.58 240.86 557.62 240.91 557.68 240.99 557.75 241.06 557.88 241.22 557.9 241.24 557.95 241.31 557.97 241.34 558.02 241.39 558.13 241.5 558.25 241.63 558.32 241.72 558.43 241.87 558.5 241.98 558.57 242.03 558.63 242.1 558.68 242.16 558.91 242.4 558.95 242.42 559.05 242.51 559.1 242.56 559.14 242.59 559.46 242.9 559.49 242.92 559.54 242.96 559.58 242.99 559.61 243.02 559.93 243.3 560.02 243.36 560.12 243.44 560.14 243.45 560.18 243.49 560.22 243.53 560.25 243.54 560.3 243.58 560.33 243.6 560.6 243.74 560.63 243.74 560.66 243.77 560.68 243.78 560.72 243.82 560.81 243.88 560.84 243.9 560.88 243.92 560.9 243.93 560.96 243.99 560.99 244 561.03 244.01 561.07 244.04 561.1 244.07 561.13 244.1 561.16 244.13 561.21 244.17 561.24 244.19 561.33 244.24 561.61 244.39 561.66 244.42 561.83 244.49 561.86 244.5 561.9 244.51 561.98 244.56 562.02 244.57 562.13 244.62 562.18 244.64"/><polyline class="cls-17" points="439.12 67.88 439.18 67.87 439.22 67.86 439.29 67.87 439.31 67.88 439.38 67.89 439.42 67.91 439.45 67.91 439.48 67.92 439.51 67.92 439.63 67.93 439.8 67.94 439.83 67.93 439.87 67.93 440.01 67.96 440.04 67.96 440.07 67.96 440.09 67.96 440.14 67.96 440.19 67.97 440.22 67.97 440.25 67.98 440.89 68 441.04 68.03 441.07 68.02 441.1 68.01 441.13 68.02 441.16 68.02 441.19 68.01 441.21 68.01 441.23 68.01 441.31 68.03 441.35 68.05 441.4 68.05 441.46 68.03 441.49 68.04 441.51 68.03 441.54 68.03 441.56 68.03 441.6 68.02 441.81 68.02 441.85 68 441.93 67.99 442 68 442.05 68 442.13 67.98 442.17 68 442.2 67.99 442.25 68 442.28 68 442.31 68.01 442.39 68.02 442.43 68.02 442.46 68.04 442.49 68.04 442.54 68.03 442.55 68.04 442.59 68.05 443.24 68.05 443.27 68.03 443.33 68.06 443.36 68.05 443.6 68.05 443.64 68.02 443.68 68.02 443.74 68.02 443.77 68.02 443.85 68.01 443.87 68 443.91 68 443.99 67.99 444.08 67.97 444.11 67.98 444.12 67.98 444.13 67.97 444.14 67.95 444.42 67.52 444.48 67.45 444.59 67.3 444.63 67.26 444.79 67.05 444.81 67.03 444.86 66.97 444.93 66.86 444.98 66.8 445.07 66.67 445.08 66.65 445.17 66.53 445.18 66.52 445.4 66.25 445.42 66.23 445.44 66.2 445.61 66.03 445.66 65.97 446.01 65.6 446.05 65.57 446.12 65.49 446.14 65.46 446.23 65.37 446.25 65.35 446.3 65.27 446.36 65.19 446.39 65.19 446.48 65.08 446.57 64.98 446.71 64.88 446.73 64.87 446.77 64.85 446.83 64.78 447.02 64.61 447.07 64.57 447.23 64.43 447.44 64.26 447.49 64.22 447.57 64.17 447.65 64.09 447.74 64.01 447.77 63.99 447.83 63.93 447.88 63.91 447.89 63.9 448.04 63.8 448.06 63.78 448.85 63.25 448.87 63.24 448.92 63.21 448.94 63.2 449 63.15 449.03 63.14 449.23 63.02 449.28 62.98 449.31 62.96 449.36 62.93 449.39 62.91 449.43 62.9 449.57 62.8 449.95 62.51 450 62.47 450.01 62.46 450.04 62.44 450.15 62.34 450.18 62.32 450.36 62.17 450.39 62.15 450.41 62.14 450.48 62.06 450.69 61.81 450.75 61.72 450.78 61.69 450.82 61.64 450.92 61.48 451.07 61.19 451.15 60.95 451.27 60.43 451.35 59.83 451.4 59.11 451.45 57.97 451.48 56.07 451.51 51.92 451.55 37.91 451.59 30.18 451.62 29.48 451.63 29.53 451.66 30.11 451.71 32.17 451.79 37.23 452.12 62.15 452.2 65.75 452.28 67.45 452.35 68.31 452.43 68.8 452.51 69.02 452.55 69.06 452.58 69.08 452.6 69.08 452.7 69.03 452.94 68.75 452.99 68.7 453 68.68 453.07 68.59 453.15 68.48 453.23 68.37 453.26 68.33 453.36 68.22 453.38 68.19 453.41 68.14 453.45 68.08 453.51 68.01 453.57 67.92 453.67 67.81 453.74 67.72 453.79 67.66 453.84 67.61 453.87 67.59 453.9 67.55 453.93 67.51 454.01 67.42 454.09 67.33 454.12 67.31 454.18 67.24 454.2 67.21 454.25 67.16 454.3 67.12 454.35 67.04 454.37 67.02 454.41 66.99 454.48 66.91 454.53 66.86 454.63 66.74 454.7 66.69 454.73 66.66 454.84 66.55 454.95 66.44 454.98 66.42 455.03 66.37 455.08 66.33 455.12 66.3 455.15 66.29 455.19 66.25 455.23 66.22 455.3 66.16 455.35 66.09 455.43 66.01 455.54 65.92 455.64 65.83 455.85 65.67 456 65.53 456.24 65.38 456.26 65.37 456.31 65.31 456.42 65.24 456.45 65.21 456.5 65.18 456.63 65.09 456.66 65.07 456.68 65.06 456.73 65.03 457.05 64.81 457.1 64.78 457.13 64.77 457.25 64.65 457.39 64.55 457.43 64.53 457.46 64.52 457.5 64.49 458.01 64.24 458.07 64.21 458.12 64.19 458.21 64.14 458.24 64.14 458.24 64.14 458.32 64.12 458.58 63.99 458.61 63.99 458.64 63.97 458.66 63.95 458.79 63.91 458.84 63.87 458.87 63.87 458.89 63.85 458.95 63.8 459.09 63.73 459.13 63.71 459.15 63.71 459.2 63.68 459.21 63.69 459.22 63.68 459.35 63.64 459.43 63.6 459.46 63.6 459.5 63.59 459.52 63.57 459.57 63.56 459.6 63.54 459.64 63.52 459.67 63.51 459.73 63.48 459.76 63.46 459.91 63.38 459.94 63.37 459.99 63.32 460.04 63.31 460.12 63.29 460.16 63.27 460.2 63.25 460.29 63.21 460.34 63.19 460.56 63.09 460.6 63.08 460.62 63.06 460.64 63.05 460.74 63 460.78 63.01 460.78 63 460.8 63.01 460.86 62.97 460.95 62.94 460.98 62.94 461.04 62.93 461.07 62.92 461.1 62.91 461.16 62.88 461.24 62.87 461.27 62.87 461.3 62.86 461.33 62.85 461.65 62.74 461.67 62.73 461.76 62.69 461.88 62.65 461.92 62.63 461.93 62.63 461.98 62.59 462.14 62.52 462.16 62.52 462.25 62.45 462.28 62.44 462.39 62.4 462.42 62.39 462.46 62.37 462.47 62.37 462.48 62.35 462.7 62.2 462.77 62.14 462.8 62.12 462.84 62.09 462.89 62.06 462.94 62.02 463.01 61.94 463.05 61.9 463.38 61.52 463.43 61.45 463.46 61.41 463.54 61.28 463.61 61.13 463.68 60.97 463.77 60.64 463.88 60.01 463.94 59.27 463.99 58.15 464.03 56.47 464.06 53 464.09 44.07 464.14 30.61 464.17 29.52 464.17 29.51 464.18 29.52 464.2 29.79 464.24 31.04 464.3 34.33 464.4 42.37 464.58 56.61 464.71 64.59 464.79 66.84 464.86 67.99 464.95 68.7 465.02 69.01 465.08 69.08 465.12 69.12 465.15 69.15 465.16 69.15 465.19 69.14 465.21 69.13 465.24 69.11 465.39 68.98 465.43 68.93 465.44 68.91 465.55 68.76 465.59 68.72 465.67 68.62 465.69 68.59 465.75 68.49 465.77 68.46 465.82 68.4 465.86 68.36 466 68.17 466.02 68.16 466.16 67.99 466.58 67.56 466.61 67.53 466.65 67.51 466.74 67.41 466.76 67.38 466.86 67.26 466.88 67.25 466.94 67.18 467.1 67.03 467.27 66.9 467.32 66.84 467.7 66.49 467.74 66.46 467.8 66.39 467.83 66.37 468.04 66.19 468.05 66.18 468.1 66.14 468.15 66.11 468.23 66.03 468.27 66.02 468.3 66.01 468.4 65.94 468.42 65.93 468.95 65.51 468.96 65.52 468.97 65.51 469.07 65.45 469.08 65.45 469.18 65.39 469.19 65.39 469.27 65.32 469.31 65.32 469.66 65.1 469.71 65.05 469.79 65.04 469.81 65.03 469.84 65.01 470.06 64.88 470.1 64.84 470.18 64.82 470.27 64.77 470.29 64.76 470.35 64.73 470.38 64.73 470.66 64.61 470.68 64.6 470.7 64.58 470.78 64.53 470.88 64.48 470.91 64.47 471.2 64.35 471.23 64.33 471.31 64.3 471.35 64.28 471.41 64.28 471.47 64.28 471.5 64.27 471.61 64.23 471.72 64.17 471.75 64.16 471.86 64.13 471.89 64.11 471.93 64.1 471.95 64.1 471.99 64.09 472.03 64.08 472.09 64.08 472.28 63.99 472.3 64 472.53 63.92 472.56 63.91 472.6 63.91 472.7 63.89 472.75 63.87 472.79 63.87 472.82 63.86 472.93 63.84 473.07 63.78 473.11 63.78 473.31 63.74 473.33 63.75 473.36 63.73 473.67 63.7 473.69 63.68 474.32 63.51 474.36 63.5 474.38 63.51 474.41 63.49 474.43 63.48 474.43 63.48 474.52 63.47 474.61 63.44 474.65 63.46 474.69 63.45 474.71 63.45 474.75 63.44 474.78 63.43 474.82 63.41 474.9 63.38 474.93 63.38 474.95 63.38 474.99 63.37 475.03 63.36 475.11 63.35 475.14 63.36 475.2 63.35 475.3 63.32 475.34 63.32 475.41 63.29 475.45 63.27 475.51 63.25 475.55 63.24 475.59 63.23 475.62 63.22 475.7 63.21 475.73 63.21 475.77 63.21 475.98 63.19 476.03 63.16 477.31 62.85 477.37 62.83 477.4 62.82 477.71 62.72 477.73 62.72 477.78 62.72 477.9 62.68 477.94 62.66 477.98 62.66 478.1 62.63 478.19 62.64 478.21 62.63 478.25 62.62 478.32 62.59 478.35 62.59 478.41 62.56 478.43 62.55 478.47 62.53 478.49 62.52 478.54 62.51 478.72 62.47 478.76 62.47 478.96 62.38 479 62.38 479.66 62.09 479.75 62.05 479.78 62.05 479.9 61.95 480 61.9 480.12 61.8 480.21 61.68 480.24 61.66 480.35 61.53 480.38 61.49 480.42 61.43 480.47 61.34 480.56 61.16 480.74 60.58 480.83 60.05 480.88 59.49 480.94 58.61 480.98 57.18 481 54.76 481.04 48.41 481.11 30.07 481.13 29.53 481.13 29.53 481.15 29.69 481.19 30.62 481.24 33.32 481.32 39.68 481.56 58.47 481.68 64.73 481.76 67.05 481.84 68.23 481.91 68.79 481.98 69.01 482.08 69.16 482.12 69.17 482.26 69.1 482.32 69.04 482.39 68.97 482.45 68.9 482.48 68.88 482.57 68.78 482.6 68.75 482.63 68.72 482.7 68.64 482.71 68.63 482.8 68.51 482.84 68.46 483.08 68.22 483.11 68.19 483.15 68.13 483.34 67.97 483.93 67.36 483.95 67.35 483.99 67.32 484.03 67.27 484.2 67.13 484.25 67.08 484.25 67.08 484.28 67.06 484.37 66.99 484.38 67 484.39 66.98 484.44 66.94 484.51 66.88 484.56 66.82 484.66 66.75 484.79 66.64 484.83 66.62 484.9 66.56 484.98 66.49 485.04 66.42 485.19 66.35 485.27 66.28 485.33 66.25 485.35 66.24 485.71 66.04 486.52 65.49 486.56 65.48 486.62 65.46 486.66 65.46 486.69 65.44 486.73 65.44 486.76 65.42 486.78 65.42 486.85 65.38 486.87 65.36 486.9 65.35 486.93 65.35 486.97 65.32 487.01 65.31 487.06 65.28 487.15 65.23 487.17 65.23 487.2 65.21 487.37 65.16 487.39 65.15 487.41 65.14 487.5 65.11 487.55 65.08 487.64 65.06 487.67 65.04 487.72 65.02 487.74 65.02 487.78 64.99 487.82 64.97 487.89 64.97 487.92 64.97 488.27 64.85 488.3 64.85 488.34 64.83 488.41 64.81 488.46 64.79 488.49 64.8 488.51 64.79 488.56 64.77 488.61 64.75 488.67 64.74 488.69 64.74 488.73 64.72 488.78 64.7 488.83 64.68 488.86 64.68 488.89 64.68 488.94 64.65 488.99 64.64 489.02 64.63 489.04 64.63 489.07 64.61 489.18 64.59 489.25 64.56 489.26 64.55 489.52 64.49 489.55 64.48 489.6 64.46 489.62 64.47 489.67 64.45 489.71 64.42 489.77 64.41 489.81 64.4 489.85 64.39 489.88 64.39 489.91 64.38 490.06 64.33 490.11 64.3 490.22 64.28 490.35 64.28 490.39 64.28 490.43 64.26 490.46 64.25 490.51 64.24 490.56 64.24 490.6 64.23 490.81 64.18 490.83 64.17 490.96 64.15 490.98 64.15 491.03 64.14 491.06 64.15 491.09 64.14 491.12 64.12 491.16 64.11 491.18 64.11 491.21 64.11 491.28 64.09 491.33 64.08 491.44 64.01 491.46 64.01 491.5 63.99 491.54 64 491.56 63.99 491.62 63.97 491.64 63.97 491.68 63.96 491.73 63.95 491.78 63.94 491.81 63.94 491.9 63.93 491.94 63.92 492.12 63.88 492.21 63.87 492.23 63.86 492.25 63.85 492.67 63.8 492.71 63.79 492.76 63.78 492.8 63.77 492.82 63.77 492.85 63.75 492.9 63.76 492.94 63.75 493.1 63.73 493.12 63.72 493.15 63.72 493.2 63.72 493.23 63.73 493.24 63.73 493.24 63.72 493.26 63.72 493.29 63.73 493.33 63.72 493.38 63.7 493.4 63.69 493.45 63.69 493.49 63.68 493.67 63.71 494.07 63.61 494.21 63.84 494.25 63.88 494.36 64.03 494.37 64.05 494.45 64.16 494.49 64.21 494.55 64.3 494.62 64.36 494.75 64.52 494.77 64.54 494.82 64.62 494.84 64.64 494.89 64.7 495 64.8 495.12 64.93 495.19 65.03 495.3 65.17 495.37 65.28 495.44 65.33 495.5 65.4 495.55 65.47 495.78 65.7 495.82 65.72 495.92 65.81 495.97 65.87 496.01 65.89 496.33 66.21 496.36 66.22 496.41 66.27 496.45 66.3 496.48 66.33 496.8 66.61 496.89 66.67 496.99 66.75 497.01 66.75 497.05 66.79 497.1 66.83 497.12 66.84 497.17 66.88 497.2 66.9 497.47 67.04 497.5 67.04 497.53 67.07 497.55 67.09 497.59 67.12 497.68 67.19 497.71 67.21 497.75 67.23 497.77 67.24 497.83 67.29 497.86 67.3 497.9 67.32 497.94 67.34 497.97 67.38 498 67.4 498.03 67.43 498.08 67.48 498.11 67.49 498.2 67.54 498.48 67.7 498.53 67.72 498.7 67.79 498.73 67.8 498.77 67.81 498.85 67.86 498.89 67.87 499 67.92 499.05 67.94"/><polyline class="cls-17" points="21.16 242.07 21.19 242.07 21.23 242.07 21.3 242.07 21.38 242.05 21.4 242.06 21.44 242.04 21.63 242.06 21.65 242.05 21.69 242.06 21.71 242.06 21.78 242.06 21.79 242.06 21.8 242.06 21.85 242.06 21.87 242.06 21.98 242.03 22.08 242.04 22.13 242.03 22.17 242.03 22.23 242.03 22.27 242.01 22.47 242.02 22.52 242.03 22.63 242.05 22.74 242.08 22.78 242.08 22.83 242.11 22.87 242.11 23.19 242.13 23.26 242.15 23.29 242.17 23.31 242.16 23.33 242.17 23.38 242.17 23.41 242.18 23.45 242.17 23.47 242.17 23.5 242.18 23.53 242.18 23.55 242.18 23.59 242.19 23.62 242.19 23.64 242.19 23.69 242.17 23.75 242.18 23.77 242.17 23.77 242.18 23.87 242.17 23.94 242.19 23.97 242.19 24.24 242.23 24.28 242.21 24.31 242.2 24.46 242.2 24.49 242.22 24.53 242.21 24.55 242.2 24.57 242.19 24.6 242.19 24.65 242.19 24.68 242.18 24.8 242.17 24.85 242.15 24.92 242.16 24.95 242.17 25.12 242.16 25.18 242.15 25.22 242.15 25.29 242.15 25.33 242.16 25.51 242.18 25.59 242.17 25.73 242.19 25.76 242.18 25.8 242.17 25.84 242.15 25.91 242.14 25.96 242.15 26 242.13 26.04 242.15 26.07 242.15 26.16 242.15 26.23 242.03 26.33 241.9 26.37 241.86 26.41 241.82 26.5 241.68 26.59 241.55 26.67 241.44 26.7 241.39 26.77 241.28 26.85 241.16 26.89 241.09 26.96 240.98 27.74 240.07 27.76 240.05 28.09 239.68 28.11 239.67 28.2 239.59 28.24 239.54 28.49 239.33 28.51 239.31 28.62 239.19 28.65 239.19 28.76 239.11 28.84 239.06 28.89 239 28.94 238.96 28.99 238.91 29.08 238.84 29.1 238.83 29.16 238.76 29.29 238.65 29.31 238.63 29.36 238.6 29.44 238.56 29.51 238.52 29.57 238.48 29.69 238.4 29.73 238.37 29.79 238.31 30.11 238.07 30.17 238.05 30.23 237.99 30.26 237.98 30.29 237.96 30.53 237.78 30.55 237.77 30.6 237.71 30.7 237.66 30.72 237.65 30.76 237.62 30.81 237.58 30.82 237.56 31.68 236.87 32.24 236.3 32.31 236.2 32.33 236.19 32.38 236.12 32.62 235.62 32.77 235.16 32.85 234.76 32.94 233.96 32.99 233.06 33.03 231.62 33.06 229.16 33.09 222.63 33.16 204.32 33.18 203.82 33.19 203.84 33.21 204.09 33.25 205.31 33.31 208.57 33.41 216.6 33.58 230.53 33.72 238.64 33.8 241.13 33.88 242.35 33.94 242.88 33.99 243.2 34.05 243.32 34.09 243.38 34.2 243.38 34.22 243.37 34.4 243.19 34.47 243.09 34.48 243.09 34.48 243.08 34.82 242.59 34.98 242.34 35.01 242.32 35.06 242.26 35.08 242.23 35.21 242.09 35.38 241.91 35.42 241.85 36.08 241.08 36.14 241.02 36.21 240.94 36.23 240.92 36.28 240.85 36.52 240.59 36.56 240.55 36.76 240.38 36.79 240.34 36.85 240.31 36.93 240.22 37.07 240.11 37.09 240.1 37.24 239.95 37.26 239.94 37.3 239.92 37.37 239.87 37.41 239.85 37.43 239.84 37.46 239.81 37.5 239.77 37.54 239.75 37.57 239.73 37.91 239.48 37.98 239.44 38.02 239.39 38.03 239.39 38.09 239.34 38.13 239.3 38.19 239.27 38.34 239.19 38.36 239.17 38.46 239.1 38.67 238.99 38.74 238.96 38.8 238.91 38.82 238.91 38.85 238.88 38.96 238.78 39.01 238.77 39.04 238.74 39.09 238.73 39.16 238.69 39.19 238.68 39.28 238.63 39.32 238.64 39.36 238.59 39.42 238.56 39.47 238.51 39.63 238.42 39.66 238.41 39.69 238.4 39.72 238.37 39.74 238.37 39.78 238.35 39.82 238.33 40.03 238.24 40.07 238.22 40.15 238.2 40.17 238.18 40.21 238.16 40.22 238.16 40.23 238.15 40.3 238.09 40.33 238.06 40.38 238.03 40.46 238.01 40.55 237.94 40.6 237.91 40.75 237.87 40.81 237.84 40.85 237.82 40.87 237.79 40.88 237.79 40.89 237.79 40.96 237.75 41.02 237.73 41.06 237.73 41.1 237.72 41.33 237.6 41.42 237.57 41.5 237.5 41.54 237.5 41.58 237.48 41.65 237.47 41.72 237.43 41.78 237.41 41.81 237.4 41.84 237.4 41.9 237.38 42.57 237.12 42.61 237.1 43.02 236.92 43.08 236.88 43.12 236.86 43.13 236.86 43.14 236.85 43.18 236.82 43.23 236.8 43.27 236.77 43.36 236.69 43.38 236.67 43.52 236.59 43.55 236.56 43.59 236.52 43.71 236.42 43.73 236.4 43.8 236.31 43.86 236.26 43.91 236.19 43.95 236.17 44 236.1 44.04 236.05 44.08 236.01 44.16 235.9 44.2 235.84 44.35 235.54 44.5 235.05 44.56 234.7 44.63 234.13 44.69 233.32 44.73 231.96 44.77 229.41 44.8 223.34 44.87 204.23 44.9 203.87 44.91 204 44.95 204.89 45 207.56 45.09 213.91 45.32 232.44 45.45 239.41 45.53 241.47 45.6 242.54 45.66 243.03 45.73 243.3 45.8 243.42 45.91 243.44 46.16 243.22 46.2 243.17 46.28 243.09 46.35 243.02 46.38 242.98 46.49 242.82 46.64 242.64 46.66 242.63 46.74 242.54 46.83 242.44 46.86 242.4 46.95 242.28 46.98 242.25 47.12 242.09 47.24 241.97 47.29 241.93 47.31 241.91 47.79 241.46 47.84 241.41 47.89 241.35 47.91 241.33 48.04 241.19 48.26 240.99 48.27 240.99 48.32 240.92 48.5 240.78 48.56 240.73 48.62 240.69 48.93 240.48 48.97 240.45 49.07 240.39 49.08 240.38 49.12 240.35 49.14 240.35 49.16 240.32 49.2 240.28 49.24 240.27 49.26 240.24 49.27 240.24 49.3 240.23 49.34 240.19 49.53 240.06 49.55 240.06 49.58 240.05 49.59 240.05 49.59 240.04 49.62 240.02 49.78 239.9 49.87 239.85 49.91 239.83 49.92 239.82 49.97 239.8 50.02 239.75 50.05 239.73 50.1 239.69 50.13 239.69 50.26 239.63 50.32 239.59 50.38 239.57 50.49 239.49 51.06 239.18 51.09 239.18 51.13 239.14 51.34 239.05 52.38 238.62 52.38 238.62 52.39 238.6 52.45 238.57 52.62 238.52 52.7 238.47 52.75 238.47 52.82 238.43 52.86 238.42 52.96 238.41 53.48 238.27 53.5 238.27 53.65 238.21 53.68 238.18 53.76 238.16 54 238.06 54.05 238.05 54.08 238.03 54.12 238.01 54.19 237.99 54.21 238 54.27 237.96 54.34 237.95 54.37 237.94 54.43 237.9 54.52 237.89 54.54 237.88 54.55 237.88 54.57 237.88 54.6 237.88 54.66 237.87 54.68 237.87 54.72 237.88 54.89 237.81 54.91 237.81 54.94 237.79 54.96 237.79 55.01 237.75 55.08 237.74 55.1 237.73 55.12 237.71 55.15 237.7 55.18 237.69 55.23 237.68 55.27 237.69 55.32 237.68 55.48 237.68 55.52 237.66 55.61 237.64 55.65 237.62 55.74 237.59 55.77 237.6 55.79 237.6 55.83 237.6 55.86 237.59 56.22 237.51 56.24 237.5 56.41 237.47 56.45 237.47 56.53 237.45 56.57 237.45 56.6 237.45 56.63 237.45 56.66 237.45 56.71 237.44 56.74 237.44 56.79 237.44 56.84 237.41 56.93 237.39 56.96 237.39 56.98 237.38 57.07 237.39 57.13 237.38 57.15 237.36 57.21 237.35 57.24 237.35 57.28 237.34 57.4 237.31 57.45 237.29 57.53 237.28 57.55 237.3 57.6 237.28 57.73 237.21 57.8 237.19 57.82 237.18 58.1 237.05 58.13 237.05 58.17 237.03 58.24 237.02 58.35 236.99 58.38 236.97 58.39 236.97 58.39 236.97 58.44 236.94 58.67 236.83 58.71 236.82 58.75 236.83 58.77 236.83 58.79 236.82 58.8 236.82 59.15 236.67 59.18 236.65 59.37 236.55 59.4 236.53 59.82 236.24 59.93 236.11 60.01 236.02 60.06 235.94 60.16 235.81 60.33 235.45 60.48 234.9 60.56 234.39 60.61 233.85 60.66 232.74 60.7 231.24 60.73 228.26 60.76 220.35 60.81 204.91 60.84 203.89 60.85 203.88 60.85 203.9 60.87 204.19 60.91 205.25 60.97 208.46 61.06 216.01 61.26 231.43 61.39 239.03 61.47 241.26 61.53 242.4 61.62 243.1 61.69 243.39 61.77 243.51 61.89 243.51 62.13 243.27 62.2 243.16 62.22 243.13 62.29 243.05 62.33 242.99 62.49 242.78 62.62 242.64 62.66 242.6 62.76 242.48 63.17 242.03 63.19 242.01 63.37 241.83 63.4 241.81 63.55 241.66 63.58 241.64 63.61 241.62 63.66 241.57 63.71 241.53 63.74 241.52 63.79 241.47 63.81 241.46 63.88 241.39 63.9 241.38 63.97 241.32 64.03 241.27 64.08 241.24 64.11 241.22 64.22 241.11 64.28 241.07 64.33 241.03 64.43 240.95 64.46 240.92 64.49 240.9 64.53 240.85 64.65 240.77 64.72 240.7 64.76 240.68 64.8 240.63 64.84 240.6 64.88 240.59 64.93 240.56 65.06 240.47 65.13 240.44 65.18 240.41 65.2 240.4 65.29 240.31 65.31 240.3 65.36 240.27 65.42 240.23 65.44 240.23 65.63 240.13 65.66 240.11 65.69 240.11 65.72 240.09 65.86 240.01 65.9 239.98 65.92 239.98 65.99 239.95 66.01 239.94 66.06 239.92 66.82 239.58 66.84 239.58 66.84 239.58 67.2 239.44 67.27 239.41 67.31 239.38 67.35 239.37 67.47 239.32 67.5 239.3 67.53 239.3 67.54 239.3 67.57 239.28 67.59 239.27 67.77 239.22 67.8 239.19 67.83 239.18 67.86 239.16 67.89 239.16 67.95 239.13 67.99 239.14 68.11 239.08 68.15 239.07 68.21 239.05 68.24 239.04 68.29 239.02 68.35 239 68.37 239 68.42 238.98 68.46 238.97 68.51 238.95 68.56 238.93 68.6 238.92 68.61 238.92 68.62 238.91 68.74 238.88 68.78 238.85 68.81 238.85 69.21 238.77 69.23 238.76 69.34 238.73 69.39 238.71 69.52 238.65 69.54 238.64 69.57 238.63 69.66 238.62 69.72 238.59 69.77 238.59 69.81 238.56 69.84 238.55 69.88 238.52 69.92 238.53 69.95 238.53 70.05 238.52 70.07 238.51 70.1 238.5 70.13 238.51 70.17 238.49 70.19 238.49 70.23 238.47 70.25 238.47 70.28 238.47 70.33 238.46 70.35 238.46 70.39 238.47 70.42 238.44 70.53 238.4 70.57 238.39 70.62 238.35 70.64 238.35 70.68 238.34 70.73 238.33 70.76 238.34 70.85 238.32 70.89 238.3 70.91 238.29 70.94 238.28 70.98 238.28 71.13 238.24 71.19 238.22 71.22 238.21 71.26 238.19 71.38 238.19 71.41 238.18 71.44 238.18 71.61 238.13 71.65 238.13 71.71 238.11 71.76 238.1 71.82 238.1 71.86 238.09 71.89 238.08 71.97 238.08 72.01 238.07 72.09 238.05 72.14 238.03 72.18 238.03 72.24 238.01 72.3 237.99 72.36 237.99 72.38 237.99 72.41 237.99 72.72 237.93 72.76 237.94 72.8 237.92 73.01 237.88 73.04 237.86 73.07 237.87 73.1 237.85 73.11 237.86 73.12 237.85 73.19 237.84 73.31 237.84 73.38 237.84 73.41 237.84 73.47 237.85 73.52 237.84 73.55 237.83 73.58 237.82 73.88 237.74 73.92 237.74 74 237.72 74.02 237.71 74.09 237.72 74.15 237.71 74.25 237.69 74.29 237.66 74.45 237.66 74.49 237.65 74.53 237.65 74.57 237.65 74.68 237.6 74.72 237.62 74.78 237.6 74.87 237.61 74.92 237.59 74.94 237.59 74.96 237.58 75.14 237.57 75.17 237.56 75.2 237.56 75.21 237.56 75.22 237.56 75.25 237.56 75.28 237.56 75.3 237.55 75.34 237.53 75.38 237.55 75.42 237.54 75.45 237.54 75.47 237.53 75.5 237.53 75.56 237.5 75.59 237.5 75.63 237.5 75.7 237.5 75.75 237.5 75.85 237.5 75.89 237.5 76.11 237.49 76.16 237.56 76.43 237.9 76.45 237.92 76.56 238.09 76.62 238.17 76.71 238.3 76.88 238.53 76.93 238.6 77.11 238.79 77.16 238.86 77.22 238.93 77.45 239.26 77.5 239.31 77.58 239.4 77.61 239.43 77.65 239.46 77.67 239.47 77.73 239.54 77.89 239.67 77.91 239.68 77.94 239.72 77.99 239.76 78.28 240.03 78.3 240.04 78.36 240.11 78.37 240.12 78.73 240.44 78.83 240.53 78.85 240.55 78.88 240.57 78.97 240.65 78.99 240.66 79.03 240.69 79.07 240.73 79.12 240.76 79.21 240.83 79.27 240.87 79.36 240.93 79.38 240.94 79.46 240.98 79.48 240.98 79.51 241.01 79.55 241.03 79.6 241.04 79.64 241.07 79.68 241.11 79.72 241.15 79.73 241.16 79.79 241.21 79.82 241.21 79.89 241.25 79.92 241.26 79.98 241.3 80.07 241.37 80.11 241.4 80.15 241.42 80.18 241.42 80.21 241.45 80.73 241.7 80.77 241.73 80.85 241.76 80.88 241.78 80.92 241.79 80.97 241.84 81.02 241.88 81.05 241.89 81.08 241.91"/><polyline class="cls-18" points="177.35 145.83 177.39 145.82 177.75 145.83 177.8 145.82 177.85 145.83 177.91 145.82 177.93 145.83 177.94 145.84 177.96 145.82 178.02 145.82 178.05 145.82 178.09 145.82 178.16 145.82 178.22 145.84 178.95 145.87 179.02 145.87 179.06 145.88 179.1 145.88 179.13 145.88 179.22 145.89 179.28 145.88 179.31 145.88 179.49 145.9 179.52 145.9 179.63 145.9 179.64 145.89 179.69 145.88 179.71 145.88 180.04 145.91 180.09 145.92 180.27 145.93 180.3 145.92 180.5 145.91 180.55 145.94 180.66 145.96 180.78 145.97 180.8 145.97 180.81 145.98 180.87 145.99 180.92 145.98 180.98 145.98 181.42 145.97 181.45 145.98 181.56 145.97 181.6 145.97 181.68 145.98 181.92 145.99 181.96 145.98 182.01 145.98 182.06 145.98 182.12 145.98 182.28 145.98 182.31 145.98 182.6 146 182.67 146.01 182.74 146 182.78 146 182.8 146 182.88 145.98 182.91 145.98 183.21 146 183.24 146 183.26 145.99 183.36 145.88 183.49 145.74 183.59 145.62 183.71 145.47 183.85 145.32 183.87 145.3 183.93 145.22 184.18 144.94 184.34 144.78 184.39 144.73 184.44 144.69 184.54 144.59 184.64 144.48 184.72 144.43 184.79 144.37 184.82 144.34 184.85 144.3 184.99 144.18 185.38 143.85 185.4 143.84 185.52 143.71 185.62 143.62 185.7 143.57 185.82 143.46 185.85 143.43 185.92 143.37 186.37 143.08 186.54 142.95 186.59 142.91 186.64 142.87 186.67 142.84 186.73 142.79 187.07 142.58 187.16 142.54 187.2 142.52 187.26 142.47 187.31 142.42 187.37 142.4 187.41 142.37 187.46 142.35 187.54 142.3 187.56 142.29 187.6 142.26 187.7 142.21 188.78 141.59 188.83 141.58 188.94 141.55 188.97 141.54 189.12 141.46 189.17 141.44 189.21 141.42 189.25 141.39 189.29 141.38 189.33 141.36 189.4 141.31 189.46 141.28 189.6 141.21 189.63 141.2 189.67 141.18 190.3 140.83 190.35 140.8 190.4 140.78 190.47 140.72 190.5 140.71 190.55 140.67 190.58 140.65 190.69 140.57 190.72 140.55 190.8 140.5 190.81 140.49 190.87 140.45 190.96 140.38 191.01 140.33 191.49 139.78 191.56 139.65 191.67 139.44 191.79 139.09 191.88 138.66 191.96 138.08 192.02 137.31 192.06 136.1 192.1 134.16 192.13 129.18 192.24 110.13 192.25 109.96 192.26 109.99 192.29 110.38 192.35 111.89 192.43 115.94 192.58 126.28 192.74 135.71 192.9 142.79 193 144.98 193.08 145.98 193.17 146.58 193.26 146.82 193.37 146.92 193.41 146.95 193.42 146.94 193.51 146.91 193.6 146.86 193.66 146.8 193.7 146.78 193.82 146.64 193.88 146.57 193.96 146.49 193.98 146.46 194.03 146.4 194.06 146.36 194.13 146.27 194.28 146.13 194.34 146.06 194.38 146.03 194.56 145.85 194.62 145.77 194.71 145.67 194.75 145.63 194.85 145.54 194.93 145.47 194.97 145.43 195.28 145.13 195.31 145.12 195.35 145.09 195.38 145.06 195.51 144.94 195.53 144.93 195.59 144.9 195.6 144.89 195.81 144.74 195.84 144.71 195.88 144.67 195.97 144.61 196.03 144.56 196.06 144.55 196.22 144.42 196.24 144.41 196.29 144.35 196.36 144.33 196.41 144.27 196.49 144.25 196.56 144.19 197.04 143.87 197.08 143.85 197.41 143.6 197.42 143.61 197.51 143.56 197.56 143.53 197.58 143.52 197.61 143.5 197.84 143.34 197.87 143.32 198.06 143.19 198.52 142.96 198.54 142.94 199.26 142.63 199.29 142.62 199.35 142.59 199.37 142.59 199.39 142.57 199.4 142.58 199.46 142.55 199.72 142.43 199.83 142.4 200.01 142.34 200.04 142.34 200.09 142.31 200.27 142.24 200.47 142.15 200.49 142.14 200.59 142.08 200.61 142.08 200.67 142.05 200.72 142.03 200.77 141.99 200.91 141.92 200.94 141.89 201.01 141.88 201.06 141.85 201.12 141.85 201.23 141.8 201.27 141.79 201.29 141.78 201.4 141.74 201.43 141.73 201.5 141.71 201.81 141.63 201.85 141.6 202.34 141.44 202.37 141.43 202.4 141.43 202.47 141.41 202.77 141.31 202.81 141.31 202.85 141.29 202.89 141.27 203.09 141.25 203.13 141.23 203.22 141.19 203.24 141.19 203.27 141.17 203.42 141.1 203.46 141.08 203.58 141.04 203.61 141.03 203.64 141.01 203.67 141 203.71 141 203.73 140.98 203.78 140.97 203.82 140.95 204.22 140.86 204.26 140.84 204.35 140.82 204.41 140.8 204.69 140.67 204.72 140.65 204.75 140.65 205.26 140.37 205.31 140.34 205.35 140.31 205.39 140.29 205.46 140.24 205.51 140.2 205.57 140.17 205.94 139.78 206.23 139.19 206.34 138.82 206.41 138.42 206.48 137.75 206.53 136.96 206.58 135.36 206.61 132.39 206.65 124.63 206.71 110.85 206.75 110 206.75 109.99 206.77 110.12 206.81 110.96 206.88 113.71 206.99 120.15 207.24 135.74 207.4 142.82 207.49 144.89 207.57 145.99 207.66 146.58 207.77 146.93 207.84 147 207.96 147.03 207.99 147.02 208.05 146.99 208.14 146.91 208.17 146.9 208.24 146.82 208.31 146.76 208.45 146.61 208.52 146.51 208.59 146.43 208.64 146.39 208.77 146.25 208.81 146.23 209.05 146 209.11 145.95 209.16 145.91 209.22 145.85 209.3 145.79 209.42 145.68 209.47 145.64 209.63 145.47 209.66 145.45 209.71 145.4 209.74 145.38 209.78 145.34 209.8 145.33 209.84 145.31 209.89 145.27 209.96 145.22 209.97 145.21 210.11 145.1 210.14 145.09 210.2 145.04 210.23 145.01 210.52 144.8 210.55 144.78 210.77 144.65 210.8 144.64 210.93 144.53 211.4 144.27 211.44 144.25 211.67 144.12 212.24 143.77 212.27 143.75 212.39 143.7 212.43 143.69 212.48 143.67 212.52 143.65 212.56 143.64 212.65 143.56 212.68 143.54 212.75 143.5 212.79 143.49 212.88 143.43 212.9 143.43 213.3 143.29 213.42 143.25 213.45 143.24 213.68 143.13 214.41 142.92 214.44 142.92 214.48 142.9 214.61 142.85 214.71 142.84 214.74 142.84 214.78 142.82 215.01 142.76 215.13 142.71 215.25 142.68 215.34 142.64 215.37 142.65 215.42 142.64 215.75 142.53 215.8 142.52 215.93 142.48 215.96 142.48 215.99 142.47 216.03 142.47 216.04 142.46 216.05 142.47 216.37 142.42 216.41 142.41 216.44 142.41 216.86 142.29 216.89 142.29 217.53 142.12 217.57 142.11 217.62 142.09 217.64 142.09 217.71 142.07 217.75 142.08 217.79 142.06 217.86 142.05 217.92 142.03 217.96 142.01 218 142 218.04 142 218.15 141.98 218.19 141.97 218.24 141.96 218.34 141.92 218.41 141.91 218.5 141.91 218.54 141.92 218.58 141.91 218.87 141.85 218.9 141.84 219.16 141.78 219.21 141.76 219.27 141.75 219.31 141.75 219.42 141.73 219.45 141.72 219.5 141.7 219.54 141.71 219.59 141.69 219.64 141.68 219.68 141.68 219.71 141.67 219.76 141.66 219.81 141.66 219.86 141.63 219.93 141.61 219.96 141.6 220.01 141.59 220.04 141.59 220.14 141.56 220.24 141.54 220.28 141.54 220.34 141.54 220.46 141.53 220.53 141.51 220.7 141.49 220.73 141.48 220.75 141.48 221.11 141.42 221.16 141.43 221.28 141.4 221.33 141.39 221.38 141.4 221.44 141.38 221.5 141.38 221.54 141.36 221.67 141.34 221.71 141.32 221.77 141.3 221.86 141.29 221.89 141.29 221.95 141.27 221.99 141.26 222.1 141.27 222.15 141.26 222.18 141.25 222.21 141.25 222.79 141.12 222.98 141.06 223.05 141.07 223.08 141.04 223.21 141.02 223.26 141.02 223.32 141 223.37 140.98 223.39 140.97 223.45 140.95 223.51 140.93 223.6 140.9 223.63 140.9 223.7 140.89 223.73 140.89 223.77 140.88 223.83 140.86 223.89 140.83 223.93 140.82 223.99 140.81 224.16 140.78 224.21 140.76 224.25 140.74 224.3 140.74 224.37 140.73 224.4 140.71 224.73 140.61 224.78 140.59 224.84 140.56 224.88 140.54 225.32 140.31 225.36 140.3 225.48 140.22 225.54 140.19 225.71 140.07 225.74 140.06 225.88 139.94 226 139.81 226.09 139.7 226.33 139.19 226.39 139.01 226.49 138.57 226.57 137.91 226.63 137.03 226.68 135.52 226.71 132.81 226.75 125.66 226.82 110.73 226.85 110.01 226.86 110.06 226.89 110.48 226.95 112.06 227.03 116.17 227.21 128.11 227.37 137.12 227.5 142.77 227.58 144.85 227.67 145.98 227.75 146.51 227.84 146.84 227.91 146.97 227.96 147.01 228.01 147.02 228.04 147.03 228.23 146.95 228.27 146.91 228.32 146.88 228.4 146.79 228.43 146.77 229.24 146 229.26 145.98 229.36 145.9 229.43 145.84 229.72 145.59 229.96 145.43 230.05 145.33 230.1 145.3 230.18 145.24 230.24 145.2 230.27 145.17 230.9 144.68 230.94 144.69 230.99 144.66 231.02 144.64 231.06 144.63 231.15 144.59 231.19 144.56 231.4 144.45 231.43 144.44 231.49 144.4 231.53 144.38 231.65 144.32 231.67 144.31 231.75 144.26 231.81 144.24 231.82 144.25 231.82 144.24 231.85 144.22 231.88 144.21 231.98 144.18 232.06 144.16 232.11 144.13 232.19 144.08 232.31 144.05 232.35 144.03 232.38 144.03 232.44 144.01 232.48 144 232.54 143.97 232.59 143.96 232.67 143.93 232.77 143.9 232.83 143.87 232.85 143.85 232.92 143.81 233.03 143.77 233.07 143.75 233.1 143.75 233.19 143.71 233.23 143.71 233.32 143.68 233.37 143.69 233.41 143.67 233.45 143.66 233.79 143.52 233.85 143.5 233.95 143.43 233.98 143.42 234 143.41 234.05 143.38 234.08 143.38 234.13 143.37 234.19 143.35 234.42 143.24 234.46 143.24 234.48 143.23 234.54 143.2 234.58 143.19 234.63 143.19 234.72 143.18 234.77 143.16 234.86 143.12 234.91 143.12 235.16 143.04 235.21 143.03 235.26 143.03 235.3 143.03 235.33 143.02 235.39 143 235.43 142.99 235.47 142.97 235.47 142.98 235.49 142.97 235.57 142.95 235.62 142.95 235.77 142.91 236.04 142.81 236.14 142.81 236.45 142.79 236.49 142.78 236.54 142.78 236.61 142.75 236.64 142.74 236.67 142.74 236.69 142.74 236.74 142.72 236.75 142.72 236.97 142.64 237 142.65 237.04 142.63 237.07 142.62 237.11 142.61 237.14 142.61 237.19 142.6 237.25 142.59 237.43 142.56 237.46 142.55 237.53 142.53 237.6 142.51 237.63 142.5 237.63 142.51 237.66 142.5 237.69 142.5 237.73 142.5 237.81 142.47 237.84 142.46 237.89 142.47 237.94 142.46 238.1 142.41 238.14 142.42 238.28 142.39 238.3 142.39 238.36 142.37 238.39 142.36 238.51 142.34 238.56 142.33 238.59 142.33 238.65 142.3 238.91 142.29 238.95 142.27 238.99 142.27 239.04 142.26 239.09 142.25 239.12 142.24 239.41 142.2 239.46 142.18 239.51 142.17 239.57 142.18 239.65 142.16 239.71 142.15 239.74 142.15 239.78 142.15 239.88 142.12 239.92 142.12 239.98 142.1 240.01 142.1 240.07 142.09 240.1 142.09 240.19 142.05 240.22 142.05 240.27 142.03 240.5 141.97 240.55 141.96 240.81 141.94 240.88 141.93 241.18 141.95 241.21 141.94 241.27 141.94 241.54 141.91 241.59 141.89 241.65 141.88 241.69 141.88 242.02 141.83 242.05 141.82 242.07 141.81 242.22 141.78 242.26 141.81 242.31 141.88 242.34 141.9 242.48 142.07 242.5 142.09 242.74 142.36 242.95 142.6 242.99 142.65 243.02 142.68 243.22 142.89 243.25 142.9 243.31 142.97 243.34 143.01 243.56 143.19 243.58 143.21 243.64 143.25 243.74 143.34 244.05 143.62 244.2 143.73 244.3 143.81 244.31 143.82 244.46 143.94 244.62 144.03 244.67 144.08 244.97 144.27 245.02 144.3 245.08 144.34 245.11 144.34 245.16 144.37 245.2 144.38 245.27 144.44 245.3 144.46 245.38 144.52 245.44 144.55 245.51 144.59 245.59 144.63 245.62 144.65 245.69 144.71 245.75 144.74 245.91 144.85 245.94 144.86 246.04 144.93 246.12 144.97 246.31 145.06 246.35 145.07 246.38 145.08 247.06 145.36 247.14 145.4 247.16 145.41 247.19 145.42 247.28 145.45 247.39 145.51 247.41 145.51 247.48 145.52 247.69 145.6 247.78 145.62 247.87 145.66 247.94 145.68 248.03 145.73 248.08 145.73 248.12 145.75"/><polyline class="cls-17" points="178.55 154.83 178.59 154.83 178.63 154.82 178.66 154.82 178.76 154.83 178.93 154.84 179.06 154.85 179.1 154.85 179.22 154.88 179.25 154.88 179.35 154.86 179.42 154.89 179.72 154.89 179.75 154.88 179.79 154.9 179.84 154.9 179.88 154.89 179.91 154.89 179.94 154.89 180.02 154.89 180.06 154.89 180.36 154.92 180.57 154.91 180.64 154.92 180.75 154.91 180.78 154.91 180.82 154.9 181 154.9 181.03 154.88 181.04 154.89 181.19 154.9 181.22 154.9 181.34 154.9 181.4 154.91 181.49 154.89 181.8 154.91 181.84 154.9 181.96 154.89 182.02 154.91 182.1 154.89 182.24 154.91 183.22 154.94 183.25 154.95 183.3 154.95 183.33 154.95 183.4 154.96 183.46 154.96 183.53 154.95 183.57 154.94 183.8 154.91 183.83 154.91 184.09 154.94 184.13 154.95 184.19 154.93 184.25 154.94 184.28 154.94 184.46 154.91 184.67 154.64 184.83 154.46 184.91 154.36 184.94 154.34 185.27 153.96 185.3 153.93 185.4 153.81 185.47 153.74 185.56 153.65 185.58 153.63 185.75 153.47 185.8 153.44 185.85 153.38 185.96 153.27 185.99 153.24 186.2 153.06 186.29 152.97 186.39 152.88 186.45 152.82 186.53 152.75 186.82 152.51 186.89 152.45 186.95 152.39 186.99 152.37 187.09 152.3 187.35 152.09 187.39 152.07 187.44 152.03 187.56 151.95 187.6 151.93 187.64 151.9 187.79 151.78 187.9 151.7 187.94 151.67 187.97 151.66 188.03 151.63 188.08 151.59 188.1 151.57 188.24 151.5 188.26 151.49 188.49 151.33 188.55 151.28 188.59 151.28 188.62 151.26 188.67 151.2 189.16 150.92 189.21 150.9 189.31 150.84 189.4 150.78 189.42 150.78 189.56 150.7 189.69 150.65 189.75 150.6 189.78 150.58 189.84 150.55 189.89 150.54 189.98 150.51 190.04 150.49 190.06 150.49 190.15 150.44 190.2 150.41 190.24 150.4 190.31 150.37 190.67 150.21 190.76 150.16 190.79 150.15 191.17 150 191.19 150 191.19 150 191.27 149.97 191.63 149.84 191.67 149.81 191.68 149.8 191.73 149.78 191.81 149.75 192.01 149.64 192.08 149.63 192.13 149.61 192.17 149.6 192.27 149.56 192.38 149.54 192.4 149.54 192.44 149.53 192.47 149.52 192.73 149.44 192.76 149.44 192.84 149.39 192.92 149.38 192.94 149.38 192.97 149.37 193.06 149.34 193.09 149.33 193.31 149.25 193.38 149.25 193.41 149.23 193.52 149.18 193.57 149.18 193.66 149.15 193.69 149.14 193.73 149.14 193.83 149.11 193.89 149.1 193.92 149.09 194.05 149.08 194.09 149.06 194.12 149.06 194.18 149.03 194.42 148.96 194.45 148.96 194.53 148.92 194.6 148.9 194.66 148.88 194.7 148.87 195.03 148.76 195.09 148.75 195.13 148.74 195.17 148.72 195.17 148.72 195.22 148.73 195.38 148.68 195.43 148.65 195.49 148.66 195.52 148.65 195.6 148.62 195.68 148.59 195.73 148.55 195.78 148.55 195.96 148.49 195.99 148.5 196.04 148.48 196.15 148.44 196.54 148.29 196.57 148.3 196.57 148.3 196.64 148.25 196.66 148.24 197.1 148.03 197.15 148.01 197.18 148 197.23 147.97 197.26 147.95 197.31 147.93 197.35 147.91 197.47 147.84 197.51 147.81 197.59 147.75 197.76 147.64 197.88 147.55 198 147.41 198.07 147.33 198.21 147.16 198.34 146.94 198.38 146.84 198.6 146.13 198.66 145.73 198.74 144.92 198.79 143.97 198.83 142.31 198.87 138.94 198.91 129.12 198.96 119.06 199 117.9 199.01 117.89 199.01 117.91 199.04 118.27 199.09 119.74 199.18 123.69 199.34 134.69 199.51 144.28 199.66 150.63 199.75 152.63 199.84 153.76 199.92 154.29 199.99 154.5 200.11 154.69 200.26 154.71 200.29 154.71 200.3 154.7 200.36 154.66 200.46 154.58 200.52 154.52 200.62 154.43 200.67 154.39 200.72 154.35 201.38 153.74 201.4 153.73 201.52 153.62 201.55 153.61 201.61 153.57 201.64 153.54 201.69 153.48 201.76 153.44 201.82 153.39 201.87 153.36 201.94 153.29 201.96 153.28 202 153.24 202.21 153.09 202.27 153.02 202.67 152.75 202.71 152.74 202.8 152.69 202.82 152.69 202.94 152.6 203.12 152.51 203.16 152.48 203.21 152.44 203.28 152.38 203.34 152.36 203.43 152.3 203.47 152.3 203.51 152.26 203.54 152.24 203.64 152.18 203.67 152.17 204.01 151.94 204.09 151.91 204.15 151.88 204.18 151.87 204.25 151.84 204.31 151.82 204.59 151.68 204.6 151.68 204.6 151.67 204.69 151.63 204.73 151.62 204.78 151.61 204.87 151.57 204.9 151.56 205.01 151.53 205.04 151.52 205.1 151.49 205.13 151.48 205.17 151.46 205.2 151.46 205.29 151.42 205.35 151.4 205.39 151.36 205.46 151.34 205.49 151.33 205.56 151.31 205.59 151.29 205.66 151.27 205.99 151.17 206.03 151.17 206.07 151.15 206.11 151.13 206.17 151.1 206.2 151.1 206.24 151.09 206.27 151.08 206.33 151.05 206.37 151.04 206.4 151.03 206.43 151.03 206.49 151.01 206.67 150.96 206.73 150.96 206.78 150.93 206.82 150.92 207.19 150.79 207.27 150.77 207.32 150.75 207.35 150.74 207.42 150.71 207.44 150.7 207.49 150.67 207.52 150.67 207.56 150.66 207.62 150.66 207.69 150.62 207.76 150.61 207.81 150.6 207.85 150.59 207.91 150.57 207.95 150.56 207.99 150.56 208.09 150.54 208.14 150.53 208.2 150.52 208.26 150.5 208.29 150.5 208.51 150.47 208.59 150.46 208.69 150.46 208.73 150.44 208.77 150.43 208.82 150.41 208.86 150.41 208.91 150.38 209.03 150.39 209.09 150.38 209.29 150.32 209.31 150.32 209.4 150.31 209.44 150.3 209.49 150.3 209.55 150.28 209.6 150.27 209.68 150.26 209.75 150.25 209.78 150.25 209.96 150.24 209.99 150.24 210.23 150.19 210.26 150.19 210.38 150.15 210.4 150.14 210.44 150.13 210.5 150.13 210.55 150.12 210.59 150.12 210.65 150.1 210.68 150.09 210.72 150.08 211.08 150 211.16 149.98 211.34 149.93 211.37 149.93 211.41 149.92 211.49 149.91 211.53 149.9 211.53 149.9 211.71 149.87 211.76 149.86 212.07 149.8 212.1 149.78 212.13 149.78 212.16 149.77 212.16 149.78 212.2 149.79 212.24 149.78 212.26 149.78 212.29 149.77 212.35 149.76 212.4 149.75 212.48 149.74 212.54 149.74 212.61 149.75 212.67 149.76 212.71 149.75 212.74 149.75 212.78 149.75 212.82 149.74 212.87 149.75 212.91 149.74 212.92 149.74 212.93 149.74 213.01 149.72 213.2 149.72 213.25 149.72 213.31 149.69 213.46 149.69 213.53 149.68 213.56 149.68 213.61 149.66 213.66 149.65 213.72 149.65 213.75 149.65 213.79 149.64 213.83 149.64 213.87 149.64 213.93 149.63 214 149.6 214.11 149.59 214.16 149.57 214.19 149.56 214.36 149.54 214.39 149.54 214.41 149.53 214.45 149.53 214.52 149.52 214.63 149.49 214.72 149.48 214.76 149.49 214.87 149.48 214.9 149.49 214.99 149.48 215.02 149.48 215.09 149.47 215.15 149.48 215.25 149.48 215.29 149.47 215.32 149.49 215.45 149.46 215.5 149.46 215.55 149.46 215.6 149.46 215.63 149.45 215.67 149.44 216.5 149.32 216.55 149.32 216.58 149.31 216.62 149.3 216.66 149.29 216.72 149.3 216.77 149.3 216.79 149.29 216.88 149.28 216.95 149.27 217.01 149.27 217.07 149.25 217.13 149.26 217.17 149.25 217.2 149.25 217.24 149.25 217.26 149.25 217.26 149.24 217.34 149.24 217.43 149.25 217.48 149.24 217.62 149.23 217.65 149.22 217.74 149.24 217.81 149.23 217.84 149.22 217.87 149.23 217.9 149.23 218 149.25 218.06 149.25 218.1 149.24 218.16 149.23 218.23 149.24 218.27 149.23 218.31 149.25 218.36 149.25 218.52 149.24 218.61 149.23 218.7 149.21 218.73 149.22 218.89 149.22 218.93 149.22 219.02 149.23 219.05 149.23 219.15 149.24 219.18 149.23 219.28 149.22 219.32 149.21 219.6 149.2 219.66 149.22 219.74 149.24 219.85 149.23 219.87 149.22 219.88 149.23 220.58 149.16 220.62 149.15 220.82 149.13 220.88 149.11 221.26 149.09 221.29 149.1 221.32 149.1 221.34 149.11 221.36 149.1 221.67 149.13 221.71 149.11 221.73 149.11 221.84 149.12 221.87 149.11 221.98 149.1 222.05 149.07 222.14 149.05 222.18 149.05 222.41 149.03 222.47 149 222.56 148.97 222.61 148.95 222.74 148.94 222.83 148.95 222.86 148.96 222.91 148.96 222.94 148.96 223 148.96 223.02 148.96 223.25 148.94 223.28 148.93 223.35 148.95 223.39 148.96 223.44 148.96 223.55 148.94 223.58 148.93 223.62 148.94 223.72 148.91 223.74 148.91 223.77 148.91 224.01 148.91 224.03 148.9 224.04 148.91 224.11 148.9 224.15 148.91 224.18 148.91 224.28 148.91 224.31 148.9 224.35 148.9 224.4 148.9 224.45 148.9 224.53 148.9 224.56 148.9 224.87 148.85 224.9 148.85 225.09 148.84 225.16 148.84 225.19 148.83 225.65 148.75 225.71 148.75 225.79 148.73 225.9 148.73 225.98 148.74 226.04 148.73 226.07 148.72 226.11 148.72 226.15 148.72 226.38 148.74 226.41 148.73 226.43 148.74 226.47 148.72 226.61 148.7 226.64 148.7 226.74 148.7 226.75 148.69 226.76 148.69 226.84 148.69 226.87 148.68 226.9 148.68 226.97 148.68 227.01 148.69 227.06 148.68 227.09 148.69 227.16 148.67 227.21 148.68 227.25 148.68 227.31 148.67 227.37 148.68 228.11 148.62 228.16 148.61 228.21 148.62 228.26 148.61 228.3 148.6 228.34 148.59 228.38 148.6 228.51 148.57 228.71 148.56 228.74 148.57 228.82 148.56 228.88 148.57 228.93 148.56 228.97 148.57 229.26 148.53 229.29 148.53 229.37 148.52 229.4 148.52 229.44 148.52 229.51 148.51 229.58 148.53 229.62 148.52 229.74 148.53 229.78 148.52 229.84 148.53 229.87 148.53 230 148.52 230.04 148.52 230.1 148.5 230.14 148.52 230.18 148.51 230.22 148.52 230.25 148.51 230.5 148.5 230.53 148.5 230.59 148.49 230.81 148.47 230.84 148.47 230.89 148.47 231 148.46 231.02 148.46 231.06 148.45 231.15 148.45 231.21 148.43 231.24 148.44 231.29 148.44 231.35 148.44 231.57 148.43 231.6 148.44 231.64 148.42 231.7 148.41 231.74 148.41 231.77 148.42 231.98 148.38 232.12 148.37 232.37 148.32 232.4 148.32 232.49 148.31 232.52 148.31 232.58 148.29 232.64 148.29 232.67 148.28 232.72 148.27 232.82 148.24 232.85 148.25 232.88 148.25 233.02 148.22 233.08 148.24 233.12 148.23 233.25 148.2 233.28 148.2 233.31 148.18 233.36 148.16 233.44 148.13 233.47 148.13 233.51 148.13 233.56 148.09 233.8 148.07 233.87 148.05 233.91 148.04 233.96 148.03 234.01 148.01 234.05 148.01 234.08 148 234.13 147.99 234.16 147.97 234.19 147.98 234.25 147.98 234.31 147.97 234.37 147.95 234.43 147.93 234.49 147.92 234.56 147.89 234.59 147.88 234.64 147.85 234.67 147.84 234.69 147.83 234.82 147.79 234.85 147.77 235.14 147.61 235.2 147.58 235.28 147.55 235.37 147.5 235.42 147.46 235.56 147.33 235.59 147.3 235.77 147.1 235.85 146.97 236.07 146.44 236.2 145.83 236.27 145.27 236.33 144.24 236.38 142.57 236.41 139.6 236.45 132.3 236.51 119.04 236.56 117.94 236.56 117.94 236.58 118.07 236.62 118.9 236.69 121.35 236.79 127.17 237.07 145.02 237.2 150.54 237.3 152.7 237.39 153.77 237.49 154.43 237.57 154.65 237.63 154.74 237.69 154.78 237.74 154.8 237.78 154.81 237.85 154.78 237.91 154.76 237.94 154.73 238.04 154.67 238.12 154.59 238.18 154.56 238.38 154.39 238.64 154.18 238.68 154.15 238.73 154.1 238.78 154.06 238.99 153.91 239.11 153.83 239.13 153.81 239.62 153.53 239.65 153.51 239.71 153.45 239.73 153.45 239.78 153.43 239.81 153.42 239.86 153.4 239.97 153.34 240.03 153.28 240.09 153.24 240.12 153.23 240.19 153.19 240.35 153.12 240.4 153.11 240.41 153.1 240.47 153.07 240.49 153.07 240.56 153.06 240.58 153.04 240.76 152.95 240.83 152.89 240.97 152.8 241.01 152.78 241.15 152.68 241.17 152.68 241.52 152.49 241.57 152.45 241.78 152.38 241.84 152.35 241.97 152.28 242.1 152.22 242.2 152.19 242.27 152.16 242.37 152.11 242.44 152.07 242.55 152.02 242.67 151.96 242.7 151.96 242.77 151.93 242.82 151.93 242.86 151.91 242.9 151.91 243.11 151.81 243.17 151.78 243.2 151.76 243.23 151.76 243.27 151.75 243.29 151.74 243.43 151.72 243.49 151.77 243.53 151.8 243.54 151.81 243.6 151.88 243.71 151.99 243.73 152 243.85 152.13 243.89 152.15 244.27 152.49 244.4 152.57 244.46 152.63 244.49 152.64 244.54 152.68 244.61 152.74 244.89 152.95 244.93 152.99 244.96 153 245.08 153.07 245.11 153.09 245.17 153.13 245.24 153.18 245.29 153.21 245.31 153.22 245.83 153.57 245.85 153.58 245.88 153.6 245.9 153.61 245.94 153.63 245.99 153.66 247.15 154.21 247.18 154.21 247.22 154.23 247.25 154.25 247.32 154.29 247.41 154.31 247.51 154.34 247.67 154.41 247.79 154.46 247.83 154.48 247.88 154.49 248.03 154.56 248.06 154.57 248.09 154.58 248.14 154.59 248.21 154.6 248.25 154.62 248.27 154.62 248.31 154.62 248.33 154.62 248.42 154.64 248.51 154.69 248.61 154.72 248.78 154.78 248.83 154.78 249.03 154.85 249.08 154.87 249.1 154.88 249.16 154.92 249.32 154.96"/><line class="cls-2" x1="259.51" y1="132.29" x2="309.29" y2="132.29"/><polygon points="311.26 132.29 304.87 129.89 304.87 134.69 311.26 132.29"/><polygon class="cls-3" points="311.26 132.29 304.87 129.89 304.87 134.69 311.26 132.29"/><line class="cls-2" x1="519.16" y1="173.98" x2="519.16" y2="175.98"/><path class="cls-19" d="M523.17,182.57v10.49a3.59,3.59,0,0,1-3.65,3.52H379.79" transform="translate(-4.02 -2.65)"/><line class="cls-2" x1="373.8" y1="193.93" x2="371.8" y2="193.93"/><line class="cls-2" x1="208.91" y1="173.98" x2="208.91" y2="175.98"/><path class="cls-20" d="M212.93,182.57v10.49a3.58,3.58,0,0,0,3.64,3.52H371.84" transform="translate(-4.02 -2.65)"/><line class="cls-2" x1="369.8" y1="193.93" x2="371.8" y2="193.93"/><polygon points="208.91 173.98 206.51 180.38 211.31 180.38 208.91 173.98"/><polygon class="cls-3" points="208.91 173.98 206.51 180.38 211.31 180.38 208.91 173.98"/><line class="cls-21" x1="15.59" y1="159.19" x2="53.8" y2="159.19"/><polygon points="57.8 159.19 53.8 157.69 53.8 160.69 57.8 159.19"/><polygon class="cls-22" points="57.8 159.19 53.8 157.69 53.8 160.69 57.8 159.19"/><line class="cls-21" x1="15.56" y1="159.09" x2="15.56" y2="121.87"/><polygon points="15.56 117.87 14.06 121.87 17.06 121.87 15.56 117.87"/><polygon class="cls-22" points="15.56 117.87 14.06 121.87 17.06 121.87 15.56 117.87"/><text class="cls-23" transform="translate(16.5 166.86)">parameter 1</text><text class="cls-23" transform="translate(10.89 159.08) rotate(-90)">parameter 2</text><line class="cls-21" x1="14.24" y1="250.19" x2="33.34" y2="250.19"/><polygon points="36.34 250.19 32.34 248.69 32.34 251.69 36.34 250.19"/><polygon class="cls-22" points="36.11 250.19 32.11 248.69 32.11 251.69 36.11 250.19"/><line class="cls-21" x1="14.22" y1="250.14" x2="14.22" y2="231.53"/><polygon points="14.22 228.53 12.72 232.53 15.72 232.53 14.22 228.53"/><polygon class="cls-22" points="14.22 228.76 12.72 232.76 15.72 232.76 14.22 228.76"/><text class="cls-23" transform="translate(18.19 256.53)">ms</text><text class="cls-23" transform="translate(10.89 245.64) rotate(-90)">mV</text><line class="cls-21" x1="171.56" y1="160.86" x2="190.67" y2="160.86"/><polygon points="193.67 160.86 189.67 159.36 189.67 162.36 193.67 160.86"/><polygon class="cls-22" points="193.44 160.86 189.44 159.36 189.44 162.36 193.44 160.86"/><line class="cls-21" x1="171.55" y1="160.81" x2="171.55" y2="142.2"/><polygon points="171.55 139.2 170.05 143.2 173.05 143.2 171.55 139.2"/><polygon class="cls-22" points="171.55 139.43 170.05 143.43 173.05 143.43 171.55 139.43"/><text class="cls-23" transform="translate(175.51 167.19)">ms</text><text class="cls-23" transform="translate(168.21 156.3) rotate(-90)">mV</text><path class="cls-21" d="M504.88,44.51" transform="translate(-4.02 -2.65)"/><g class="cls-24"><rect class="cls-25" x="79.4" y="122.83" width="9.08" height="14.33"/><rect class="cls-26" x="79.4" y="136.83" width="9.08" height="14.33"/><rect class="cls-27" x="79.4" y="108.94" width="9.08" height="13.58"/></g><text class="cls-23" transform="translate(95.39 147.58) rotate(-90)">probability</text><line class="cls-28" x1="373.38" y1="157.08" x2="392.15" y2="139.72"/><line class="cls-28" x1="374.22" y1="117.37" x2="389.62" y2="127.39"/><line class="cls-28" x1="373.38" y1="148.19" x2="394.12" y2="133.24"/><line class="cls-28" x1="372.57" y1="124.47" x2="394.93" y2="136.86"/><line class="cls-28" x1="371.31" y1="134.04" x2="396.19" y2="128.16"/><line class="cls-28" x1="371.61" y1="136.99" x2="395.89" y2="142.43"/><line class="cls-28" x1="354.53" y1="147.15" x2="370.65" y2="157.2"/><line class="cls-28" x1="355.63" y1="157.9" x2="371.86" y2="148.04"/><line class="cls-28" x1="354.53" y1="138.69" x2="370.65" y2="148.74"/><line class="cls-28" x1="355.63" y1="149.44" x2="371.86" y2="139.58"/><line class="cls-28" x1="354.83" y1="130.66" x2="370.95" y2="140.71"/><line class="cls-28" x1="355.92" y1="141.41" x2="372.16" y2="131.55"/><line class="cls-28" x1="354.47" y1="122.62" x2="370.59" y2="132.67"/><line class="cls-28" x1="355.57" y1="133.37" x2="371.8" y2="123.51"/><line class="cls-28" x1="354.83" y1="114.69" x2="370.95" y2="124.74"/><line class="cls-28" x1="355.92" y1="125.44" x2="372.16" y2="115.58"/><path class="cls-28" d="M376.23,157.38" transform="translate(-4.02 -2.65)"/><path class="cls-28" d="M357.23,157.38" transform="translate(-4.02 -2.65)"/><line class="cls-28" x1="338.39" y1="141.64" x2="355.3" y2="155.98"/><line class="cls-28" x1="338.79" y1="123.03" x2="350.78" y2="118.13"/><line class="cls-28" x1="338.8" y1="125.64" x2="350.78" y2="130.34"/><line class="cls-28" x1="338.44" y1="129.4" x2="351.11" y2="119.17"/><line class="cls-28" x1="338.76" y1="148.03" x2="350.79" y2="153.3"/><line class="cls-28" x1="338.77" y1="145.27" x2="350.78" y2="140.37"/><line class="cls-28" x1="338.44" y1="142.23" x2="351.11" y2="132"/><line class="cls-28" x1="338.48" y1="128.71" x2="351.09" y2="138.69"/><path class="cls-8" d="M393.66,125.68H398a2,2,0,0,1,2,2.08v20.39a2,2,0,0,1-2,2.08h-4.29a2,2,0,0,1-2-2.08V127.76A2,2,0,0,1,393.66,125.68Z" transform="translate(-4.02 -2.65)"/><path class="cls-29" d="M393.66,125.68H398a2,2,0,0,1,2,2v20a2,2,0,0,1-2,2h-4.29a2,2,0,0,1-2-2v-20A2,2,0,0,1,393.66,125.68Z" transform="translate(-4.02 -2.65)"/><rect class="cls-30" x="388.62" y="124.45" width="6.54" height="6.54" rx="2"/><rect class="cls-30" x="388.52" y="131.94" width="6.54" height="6.54" rx="2"/><rect class="cls-30" x="388.52" y="139.43" width="6.54" height="6.54" rx="2"/><rect class="cls-8" x="331.36" y="120.27" width="8.29" height="30.47" rx="2"/><path class="cls-29" d="M337.37,122.36h4.29a2,2,0,0,1,2,2.08V152a2,2,0,0,1-2,2.08h-4.29a2,2,0,0,1-2-2.08V124.44A2,2,0,0,1,337.37,122.36Z" transform="translate(-4.02 -2.65)"/><rect class="cls-30" x="332.25" y="121.09" width="6.54" height="6.54" rx="2"/><rect class="cls-30" x="332.23" y="128.51" width="6.54" height="6.54" rx="2"/><rect class="cls-30" x="332.23" y="143.33" width="6.54" height="6.54" rx="2"/><rect class="cls-30" x="332.23" y="135.92" width="6.54" height="6.54" rx="2"/><path class="cls-8" d="M355.93,115.51h4.28a2,2,0,0,1,2,2v42a2,2,0,0,1-2,2h-4.28a2,2,0,0,1-2-2v-42A2,2,0,0,1,355.93,115.51Z" transform="translate(-4.02 -2.65)"/><path class="cls-29" d="M355.93,115.07h4.28a2,2,0,0,1,2,2v42.84a2,2,0,0,1-2,2h-4.28a2,2,0,0,1-2-2V117.1A2,2,0,0,1,355.93,115.07Z" transform="translate(-4.02 -2.65)"/><rect class="cls-30" x="350.81" y="120.94" width="6.54" height="6.54" rx="2"/><rect class="cls-30" x="350.78" y="128.35" width="6.54" height="6.54" rx="2"/><rect class="cls-30" x="350.78" y="151.46" width="6.54" height="6.54" rx="2"/><rect class="cls-30" x="350.78" y="135.77" width="6.54" height="6.54" rx="2"/><rect class="cls-30" x="350.78" y="113.53" width="6.54" height="6.54" rx="2"/><rect class="cls-30" x="350.78" y="143.4" width="6.54" height="6.54" rx="2"/><path class="cls-31" d="M374.9,115.2h4.28a2,2,0,0,1,2,2v42.72a2,2,0,0,1-2,2H374.9a2,2,0,0,1-2-2V117.22A2,2,0,0,1,374.9,115.2Z" transform="translate(-4.02 -2.65)"/><rect class="cls-30" x="369.78" y="121.14" width="6.54" height="6.54" rx="2"/><rect class="cls-30" x="369.75" y="128.56" width="6.54" height="6.54" rx="2"/><rect class="cls-30" x="369.75" y="151.67" width="6.54" height="6.54" rx="2"/><rect class="cls-30" x="369.75" y="135.97" width="6.54" height="6.54" rx="2"/><rect class="cls-30" x="369.75" y="113.73" width="6.54" height="6.54" rx="2"/><rect class="cls-30" x="369.75" y="143.6" width="6.54" height="6.54" rx="2"/><line class="cls-2" x1="413.31" y1="132.12" x2="463.3" y2="132.12"/><polygon points="464.85 132.12 458.45 129.72 458.45 134.52 464.85 132.12"/><polygon class="cls-3" points="464.85 132.12 458.45 129.72 458.45 134.52 464.85 132.12"/><text class="cls-13" transform="translate(435.24 21.24)">consistent sample</text><circle class="cls-30" cx="134.25" cy="118.67" r="7.22"/><text class="cls-32" transform="translate(131.63 121.87)">1</text><circle class="cls-30" cx="284.4" cy="117.89" r="7.22"/><text class="cls-32" transform="translate(281.68 120.88)">2</text><circle class="cls-30" cx="436.24" cy="118.91" r="7.22"/><text class="cls-32" transform="translate(433.52 121.89)">3</text><circle class="cls-30" cx="363.93" cy="207.59" r="7.22"/><text class="cls-32" transform="translate(361.21 210.58)">4</text><line class="cls-21" x1="433.09" y1="75.9" x2="452.19" y2="75.9"/><polygon points="455.19 75.9 451.19 74.4 451.19 77.4 455.19 75.9"/><polygon class="cls-22" points="454.96 75.9 450.96 74.4 450.96 77.4 454.96 75.9"/><line class="cls-21" x1="433.07" y1="75.85" x2="433.07" y2="57.24"/><polygon points="433.07 54.24 431.57 58.24 434.57 58.24 433.07 54.24"/><polygon class="cls-22" points="433.07 54.47 431.57 58.47 434.57 58.47 433.07 54.47"/><text class="cls-23" transform="translate(437.04 82.23)">ms</text><text class="cls-23" transform="translate(429.73 71.35) rotate(-90)">mV</text><g class="cls-33"><rect class="cls-25" x="544.83" y="124.88" width="9.08" height="14.33"/><rect class="cls-26" x="544.83" y="138.88" width="9.08" height="14.33"/><rect class="cls-27" x="544.83" y="110.98" width="9.08" height="13.58"/></g><text class="cls-23" transform="translate(560.81 149.63) rotate(-90)">probability</text></svg>